<?xml version="1.0" encoding="utf-8" standalone="yes"?>
<!DOCTYPE svg PUBLIC "-//W3C//DTD SVG 1.1//EN" "http://www.w3.org/Graphics/SVG/1.1/DTD/svg11.dtd">
<svg width="762" height="310" viewBox="0 0 762 310" style="fill:none;stroke:none;fill-rule:evenodd;clip-rule:evenodd;stroke-linecap:round;stroke-linejoin:round;stroke-miterlimit:1.5;" version="1.1" xmlns="http://www.w3.org/2000/svg" xmlns:xlink="http://www.w3.org/1999/xlink"><style class="text-font-style fontImports" data-font-family="Roboto">@import url('https://fonts.googleapis.com/css2?family=Roboto:wght@400;700&amp;display=block');</style><g id="items" style="isolation: isolate"><g id="blend" style="mix-blend-mode: normal"><g id="g-root-sy_1_line_1d2e47f1hluosn-fill" data-item-order="-20585" transform="translate(272.00244140625, 62.00909423828125)"></g><g id="g-root-sy_2_line-start_18mkm2z1hlupkw-fill" data-item-order="-20579" transform="translate(372, 163.50912475585938)"></g><g id="g-root-sy_2_line_zqxlu31hluqdl-fill" data-item-order="-20577" transform="translate(272.00244140625, 116.00912475585938)"></g><g id="g-root-sy_0_line_vb43pn1hlur5u-fill" data-item-order="-20573" transform="translate(200, 116.00006103515625)"></g><g id="g-root-ic_tube_18itrkb1hlxj41-fill" data-item-order="-3600" transform="translate(56, 38)"><g id="ic_tube_18itrkb1hlxj41-fill" stroke="none" fill="#969696"><g><path d="M 46.285 13.61C 44.981819 11.372805 42.58783 9.996787 39.998749 9.996787C 37.409672 9.996787 35.015686 11.372805 33.712502 13.610001C 30.872499 14.285 28.205 15.405 25.7875 16.895C 23.282444 16.231024 20.613327 16.950281 18.781076 18.783047C 16.948828 20.61581 16.23032 23.28513 16.895 25.789999C 15.384065 28.239418 14.275029 30.914944 13.61 33.715C 11.372691 35.017502 9.996466 37.411163 9.996466 39.999996C 9.996466 42.588833 11.372691 44.982494 13.61 46.284996C 14.285 49.127499 15.405 51.795002 16.895 54.209999C 16.23032 56.714863 16.948828 59.384186 18.781076 61.216949C 20.613327 63.049717 23.282444 63.768974 25.787498 63.104996C 28.236879 64.616013 30.912418 65.725052 33.712498 66.389999C 35.014366 68.62973 37.409386 70.007828 39.999996 70.007828C 42.590607 70.007828 44.98563 68.62973 46.287498 66.389992C 49.087543 65.72493 51.763062 64.615898 54.212498 63.105003C 56.717331 63.767334 59.38538 63.047516 61.217175 61.215206C 63.048969 59.382896 63.768036 56.714638 63.105003 54.210007C 64.615936 51.760582 65.724968 49.085052 66.389999 46.285C 68.628517 44.982811 70.005676 42.58847 70.005676 39.998749C 70.005676 37.409023 68.628517 35.014683 66.389992 33.712498C 65.724968 30.912445 64.615936 28.236919 63.105003 25.7875C 63.768559 23.282984 63.049545 20.614574 61.217484 18.782513C 59.385418 16.950449 56.717014 16.23144 54.212498 16.895C 51.7631 15.384027 49.08757 14.274989 46.287502 13.61ZM 29.0175 25.977499C 29.352501 23.477499 31.122501 21.285 33.702499 20.540001C 34.349491 20.343124 35.052372 20.509918 35.541924 20.976494C 36.031483 21.443069 36.231846 22.137123 36.06628 22.792828C 35.900715 23.448528 35.394875 23.964264 34.7425 24.1425C 33.252499 24.575001 32.392498 26.1325 32.822498 27.622499C 32.945175 28.007114 32.939911 28.421127 32.807499 28.8025C 32.473469 29.781597 31.409565 30.305161 30.43 29.9725C 28.69289 29.381546 26.77076 29.885614 25.547207 31.252985C 24.323656 32.620358 24.035419 34.586468 24.815002 36.247501C 25.255859 37.184952 24.853428 38.302303 23.916071 38.74337C 22.978716 39.184441 21.861277 38.782257 21.42 37.845001C 20.203764 35.255512 20.401917 32.222984 21.944778 29.813784C 23.487642 27.404583 26.159193 25.956032 29.02 25.977501ZM 43.172501 55.5275C 42.831692 56.505032 43.347607 57.573795 44.325001 57.915001C 46.767776 58.764324 49.474552 58.317551 51.514816 56.728268C 53.555084 55.138977 54.650688 52.623848 54.425003 50.047497C 56.677898 49.432709 58.375809 47.576199 58.787502 45.277504C 58.944321 44.270973 58.268829 43.323372 57.266193 43.143356C 56.26355 42.963345 55.300613 43.616783 55.097504 44.615002C 54.87431 45.864857 53.679672 46.696739 52.43 46.472504C 52.036987 46.39183 51.628433 46.440052 51.264999 46.610001C 50.324841 47.04364 49.914101 48.15723 50.3475 49.097504C 50.997528 50.507336 50.742142 52.169167 49.698784 53.318764C 48.655426 54.468361 47.02607 54.883198 45.560001 54.372501C 44.581753 54.031921 43.512672 54.54911 43.172501 55.5275ZM 58.932499 32.5975C 58.822044 33.611149 57.921806 34.350716 56.905998 34.262325C 55.89019 34.173935 55.131222 33.289989 55.197502 32.272499C 55.429863 29.581802 53.438034 27.21175 50.747498 26.977501C 49.733856 26.867043 48.994286 25.966805 49.082676 24.950996C 49.171066 23.935188 50.055012 23.17622 51.072502 23.2425C 55.826576 23.65542 59.34631 27.843283 58.935005 32.5975ZM 24.995001 43.305C 24.045065 42.893898 22.941696 43.330322 22.530001 44.280003C 21.021692 47.762848 22.62224 51.80899 26.105 53.317497C 26.722986 53.603741 27.44759 53.532372 27.997858 53.131069C 28.548124 52.729763 28.837519 52.061634 28.75383 51.385742C 28.670139 50.709843 28.226528 50.132477 27.595001 49.877502C 26.011595 49.192383 25.283894 47.352978 25.969999 45.77C 26.381102 44.820065 25.944679 43.716698 24.995001 43.305Z"></path></g></g></g><g id="g-root-ic_2_vcd1vv1hlyxhe-fill" data-item-order="-1296" transform="translate(392, 44.000030517578125)"><g id="ic_2_vcd1vv1hlyxhe-fill" stroke="none" fill="#4e88e7"><g><path d="M 24.927999 18.01C 24.172001 18.01 23.4505 18.153999 22.789 18.417999L 21.298 14.934999C 20.971817 14.17322 21.325039 13.291259 22.086884 12.965227C 22.84873 12.639195 23.730619 12.99259 24.056499 13.7545L 25.7785 17.7775C 25.820499 17.878 25.8535 17.981501 25.872999 18.084999C 25.56056 18.034372 25.244514 18.009289 24.927999 18.01ZM 28.192001 19.0165C 27.502996 18.545544 26.719965 18.229773 25.897001 18.091002C 26.061333 15.545919 27.146366 13.147649 28.949501 11.344L 29.7715 10.5235C 30.357201 9.937387 31.30714 9.937052 31.893251 10.52275C 32.479362 11.108448 32.479698 12.058388 31.894001 12.6445L 31.072001 13.4665C 29.667215 14.870857 28.876911 16.775139 28.8745 18.761499C 28.642326 18.83342 28.414454 18.918558 28.192001 19.0165ZM 31.8325 18.5665C 32.845592 18.735893 33.802753 19.147575 34.622501 19.7665L 36.145 17.3335C 36.584892 16.631409 36.372345 15.705645 35.67025 15.26575C 34.968159 14.825855 34.042397 15.038408 33.602501 15.740499L 31.8325 18.565001ZM 36.254501 21.573999C 36.7645 22.42 37.087002 23.395 37.157501 24.4375L 42.815502 22.848999C 43.613274 22.625324 44.078674 21.797276 43.855 20.9995C 43.631325 20.201725 42.803276 19.736324 42.005501 19.959999L 41.258499 20.17C 41.900528 18.407633 43.179611 16.949799 44.843498 16.084L 44.944 16.032999C 45.67905 15.651004 45.96534 14.745512 45.583488 14.010385C 45.201637 13.275256 44.2962 12.988791 43.560997 13.3705L 43.460499 13.423C 40.84713 14.781998 38.924774 17.176235 38.162502 20.0215L 37.866997 21.122499L 36.254501 21.573999ZM 38.945503 29.917C 38.945503 30.7015 38.7775 31.447001 38.473 32.1175L 43.048 32.960499C 43.862801 33.110535 44.644943 32.571594 44.794899 31.756777C 44.944851 30.941959 44.40583 30.159872 43.591 30.009998L 38.891499 29.144499C 38.927498 29.3965 38.946999 29.654499 38.946999 29.917ZM 35.810501 35.675499C 35.491859 36.671635 34.909824 37.563087 34.125999 38.255501C 35.334225 39.625496 36.000931 41.389343 36.000999 43.216003L 36.000999 44.378502C 36.000999 45.206928 36.672573 45.878502 37.500999 45.878502C 38.329426 45.878502 39.000999 45.206928 39.000999 44.378502L 39.000999 43.216C 39.000999 43.046501 38.996498 42.8755 38.988998 42.706001L 42.797501 43.407997C 43.612213 43.55785 44.394165 43.018921 44.544098 42.20422C 44.694035 41.389523 44.155182 40.607513 43.3405 40.457497L 38.334999 39.536499C 37.809044 38.130119 36.987572 36.852894 35.926003 35.791L 35.808998 35.675499ZM 25.261 39.400002C 24.835001 39.400002 24.421001 39.350498 24.021999 39.259003L 24.3925 43.064499C 24.432417 43.607445 24.763376 44.086136 25.257233 44.315235C 25.751089 44.544331 26.330305 44.487865 26.770615 44.167698C 27.210926 43.84753 27.443197 43.313927 27.377501 42.773502L 27.021999 39.109001C 26.454988 39.302151 25.860006 39.400471 25.261 39.400002ZM 21.235001 37.6255C 20.502146 36.825485 20.025223 35.824623 19.865499 34.751503L 18.890499 35.726498L 15.547 34.9375C 14.740461 34.746803 13.932063 35.24612 13.741502 36.052692C 13.550941 36.859264 14.050397 37.667576 14.857 37.858002L 16.5865 38.265999C 16.122995 38.954788 15.757026 39.704395 15.499001 40.4935L 14.368 43.949501C 14.110359 44.736919 14.53983 45.58411 15.32725 45.841751C 16.11467 46.099392 16.961859 45.669922 17.2195 44.8825L 18.3505 41.426498C 18.643444 40.530334 19.143459 39.71582 19.809999 39.049L 21.235001 37.624001ZM 16.540001 28.859501C 16.540001 28.193501 16.639 27.549999 16.825001 26.945499L 11.41 28.198C 10.602625 28.384747 10.099537 29.190674 10.28636 29.998032C 10.473183 30.805389 11.27916 31.308399 12.0865 31.1215L 16.651001 30.0655C 16.577049 29.667763 16.539892 29.264055 16.540001 28.859501ZM 17.994999 22.51L 19.1395 23.498499C 19.199499 22.366001 19.5835 21.320499 20.2015 20.452L 19.9555 20.239C 19.190964 19.57922 18.320801 19.052864 17.3815 18.681999L 14.962 15.9145C 14.416051 15.291173 13.468177 15.228415 12.844814 15.774323C 12.221452 16.320232 12.158632 17.268103 12.7045 17.8915L 12.8995 18.112L 11.638 18.205C 10.81179 18.265652 10.191122 18.984501 10.251587 19.810726C 10.312053 20.63695 11.030762 21.257778 11.857 21.1975L 13.636 21.066999C 15.222945 20.949781 16.791458 21.467764 17.9965 22.507ZM 33.711998 33.007C 35.245491 32.954609 36.508255 31.784882 36.677612 30.259869C 36.846977 28.734856 35.871632 27.31657 34.387001 26.928999C 35.401711 25.135559 34.949261 22.869411 33.323654 21.603128C 31.698044 20.336845 29.390079 20.45274 27.8995 21.8755C 26.935192 20.395124 25.027929 19.850927 23.427626 20.599546C 21.827324 21.348167 21.022673 23.160995 21.541 24.849998C 19.768648 25.53347 18.654957 27.299124 18.801626 29.19302C 18.948296 31.08692 20.320551 32.660053 22.177 33.0625C 21.778038 34.47506 22.387556 35.978348 23.6576 36.714195C 24.927647 37.450043 26.534966 37.231159 27.562 36.182499C 28.625414 37.461761 30.435394 37.829361 31.913597 37.066292C 33.3918 36.303219 34.140442 34.614819 33.713501 33.007ZM 24.721001 31.268499C 25.848999 31.091499 26.656 30.254501 26.453499 28.9555C 26.2495 27.6565 25.2265 27.1045 24.097 27.2815C 22.967501 27.4585 22.159 28.283501 22.3645 29.5945C 22.560999 30.859001 23.591499 31.445499 24.7195 31.268499ZM 31.2265 24.8815C 31.354 25.698999 30.872499 26.221001 30.193001 26.327499C 29.5135 26.434 28.8925 26.060499 28.768 25.267C 28.639 24.442001 29.122 23.926001 29.799999 23.8195C 30.4795 23.7145 31.098999 24.064001 31.2265 24.8815ZM 29.221001 33.452499C 30.0445 33.832001 30.958 33.602501 31.42 32.600502C 31.880501 31.598499 31.460501 30.755501 30.637001 30.375999C 29.815001 29.997999 28.906 30.216999 28.439501 31.2295C 27.9895 32.204502 28.399 33.074501 29.221001 33.452499Z"></path></g></g></g><g id="g-root-ic_6_1cviw971hlw4jk-fill" data-item-order="-1296" transform="translate(392, 152)"><g id="ic_6_1cviw971hlw4jk-fill" stroke="none" fill="#3cc583"><g><path d="M 20.889999 28L 20.889999 26.200001C 21.32386 26.087242 21.738438 25.910288 22.119999 25.675001L 23.41 26.950001C 23.61676 27.166962 23.905371 27.286762 24.205 27.279999C 24.503599 27.28141 24.790174 27.162457 25 26.950001C 25.438681 26.510775 25.438681 25.799227 25 25.360001L 23.710001 24.085001C 23.948343 23.699654 24.12545 23.279657 24.235001 22.84L 26.035 22.84C 26.656321 22.84 27.16 22.336321 27.16 21.715C 27.16 21.093679 26.656321 20.59 26.035 20.59L 24.235001 20.59C 24.122242 20.156139 23.945288 19.741562 23.710001 19.360001L 25 18.07C 25.413038 17.626736 25.400852 16.935986 24.972435 16.507566C 24.544016 16.079149 23.853264 16.066961 23.41 16.48L 22.119999 17.77C 21.738438 17.534714 21.32386 17.357759 20.889999 17.244999L 20.889999 15.445C 20.889999 14.82368 20.38632 14.32 19.764999 14.32C 19.143681 14.32 18.639999 14.82368 18.639999 15.445L 18.639999 17.244999C 18.200344 17.354551 17.780348 17.531658 17.395 17.77L 16.119999 16.48C 15.907957 16.260004 15.61555 16.135721 15.31 16.135721C 15.00445 16.135721 14.712044 16.260004 14.5 16.48C 14.285579 16.688932 14.164645 16.975618 14.164645 17.275002C 14.164645 17.574381 14.285579 17.861069 14.5 18.07L 15.775 19.360001C 15.539713 19.741562 15.36276 20.156139 15.25 20.59L 13.48 20.59C 12.85868 20.59 12.355 21.093679 12.355 21.715C 12.355 22.336321 12.85868 22.84 13.48 22.84L 15.28 22.84C 15.389551 23.279657 15.566658 23.699654 15.805 24.085001L 14.5 25.360001C 14.285579 25.568932 14.164645 25.855619 14.164645 26.155001C 14.164645 26.454382 14.285579 26.741068 14.5 26.950001C 14.706762 27.166962 14.995372 27.286762 15.295 27.279999C 15.5936 27.28141 15.880175 27.162457 16.09 26.950001L 17.365 25.674999C 17.750347 25.913343 18.170343 26.09045 18.610001 26.200001L 18.610001 28C 18.610001 28.621321 19.11368 29.125 19.735001 29.125C 20.356321 29.125 20.860001 28.621321 20.860001 28ZM 10 10M 42.445 28.27L 43.285 28.75C 43.810707 28.987589 44.430927 28.789017 44.720886 28.290283C 45.010849 27.791552 44.876564 27.15431 44.41 26.815001L 43.584999 26.335001C 43.600487 26.105261 43.600487 25.874739 43.584999 25.644999C 43.601143 25.42029 43.601143 25.194712 43.585003 24.970001L 44.41 24.474998C 44.801315 24.298147 45.057823 23.913952 45.071144 23.484732C 45.084465 23.055515 44.852276 22.656151 44.472679 22.455374C 44.093079 22.254595 43.632294 22.287428 43.285 22.540001L 42.445 23.02C 42.105297 22.713757 41.707382 22.479088 41.275002 22.33L 41.275002 21.369999C 41.275002 20.74868 40.77132 20.245001 40.150002 20.245001C 39.528679 20.245001 39.025002 20.74868 39.025002 21.370001L 39.025002 22.33C 38.5896 22.482292 38.187363 22.716505 37.840004 23.02L 37 22.539999C 36.472092 22.252615 35.811523 22.430969 35.5 22.945C 35.206772 23.475786 35.393776 24.143663 35.920002 24.445L 36.744999 24.940001C 36.721279 25.164375 36.721279 25.390625 36.744999 25.615002C 36.722042 25.844427 36.722042 26.075573 36.744999 26.305L 35.920002 26.785C 35.432388 27.108418 35.274097 27.751621 35.555927 28.264397C 35.837757 28.77717 36.465603 28.988298 37 28.75L 37.824997 28.27C 38.172363 28.573496 38.5746 28.807709 39.010002 28.960001L 39.010002 29.92C 39.010002 30.541321 39.51368 31.045002 40.135002 31.045002C 40.756321 31.045002 41.260002 30.541321 41.260002 29.920002L 41.260002 28.960001C 41.697704 28.81274 42.100876 28.57798 42.445 28.269999ZM 29.32 37.420002C 29.008476 36.905968 28.347908 36.727615 27.82 37.014999L 26.994999 37.494999C 26.64764 37.191505 26.245405 36.957294 25.810001 36.805L 25.809999 35.845001C 25.809999 35.223679 25.30632 34.720001 24.684999 34.720001C 24.063681 34.720001 23.559999 35.223679 23.559999 35.845001L 23.559999 36.805C 23.124596 36.957294 22.722361 37.191505 22.375 37.494999L 21.505001 37C 20.978107 36.704239 20.31143 36.884239 20.005001 37.404999C 19.717615 37.932907 19.895967 38.593475 20.41 38.904999L 21.235001 39.385002C 21.212137 39.609421 21.212137 39.835579 21.235001 40.060001C 21.212141 40.289429 21.212141 40.520565 21.235001 40.75L 20.41 41.23C 19.96703 41.484955 19.751589 42.006477 19.885471 42.499729C 20.019356 42.992985 20.468914 43.334003 20.98 43.330002C 21.173927 43.322388 21.36364 43.271114 21.535 43.18L 22.375 42.685001C 22.714701 42.991241 23.112617 43.225914 23.545 43.375L 23.545 44.334999C 23.545002 44.956322 24.048679 45.460003 24.670002 45.460003C 25.291321 45.460003 25.795002 44.956322 25.795002 44.335003L 25.795 43.375C 26.230404 43.22271 26.632641 42.988499 26.980001 42.685001L 27.805 43.18C 27.980879 43.273315 28.17597 43.324657 28.375 43.329998C 28.777893 43.325649 29.148565 43.108948 29.349998 42.760002C 29.64323 42.229214 29.456224 41.56134 28.93 41.260002L 28.105 40.779999C 28.127857 40.550568 28.127857 40.319431 28.105 40.09C 28.127863 39.865582 28.127863 39.63942 28.105 39.415001L 28.93 38.935001C 29.447306 38.617821 29.619854 37.947536 29.32 37.420002ZM 35.800003 17.005001C 35.758965 15.955358 34.882038 15.133547 33.831947 15.160639C 32.781853 15.187731 31.948469 16.053667 31.961617 17.104029C 31.974762 18.15439 32.829556 18.999199 33.880001 19C 34.403824 19.004711 34.906471 18.793509 35.269722 18.416067C 35.632973 18.038628 35.824768 17.528259 35.799999 17.004999ZM 29.965 26.094999C 28.912897 26.094999 28.059999 26.947897 28.059999 28C 28.059998 29.052101 28.912897 29.904999 29.965 29.904999C 31.017101 29.904999 31.869999 29.052101 31.869999 28C 31.861837 26.951296 31.013702 26.103161 29.965 26.094999ZM 43.300003 41.785C 42.522072 41.785023 41.821041 42.254456 41.524761 42.973755C 41.228481 43.69305 41.395515 44.520042 41.947746 45.067959C 42.499977 45.615875 43.328255 45.776417 44.045204 45.474506C 44.762154 45.172596 45.226074 44.467903 45.220001 43.689999C 45.220013 43.182152 45.017254 42.69532 44.656746 42.337631C 44.296238 41.979939 43.807831 41.781002 43.299999 41.784996ZM 12.7 41.785C 11.920735 41.778934 11.215101 42.244492 10.914082 42.963295C 10.613062 43.682095 10.776374 44.511547 11.327414 45.062584C 11.878452 45.613625 12.707905 45.776939 13.426707 45.475918C 14.14551 45.174896 14.611065 44.469265 14.605 43.689999C 14.605 42.637897 13.752102 41.784996 12.7 41.784996ZM 37 33.16C 35.078049 33.16 33.52 34.718048 33.52 36.639999C 33.52 38.561951 35.078049 40.119999 37 40.119999C 38.921951 40.119999 40.48 38.561951 40.48 36.639999C 40.48 34.718048 38.921951 33.16 37 33.16ZM 13.48 30.01C 11.558049 30.009998 10 31.568047 10 33.489998C 10 35.411949 11.558049 36.970001 13.48 36.970001C 15.401951 36.970001 16.959999 35.411949 16.959999 33.489998C 16.959999 31.568047 15.401951 30.009998 13.48 30.009998ZM 44.095001 10.39C 43.315735 10.383935 42.6101 10.849491 42.309082 11.568293C 42.00806 12.287095 42.171371 13.116547 42.722412 13.667587C 43.273453 14.218627 44.102905 14.381938 44.821705 14.080918C 45.540508 13.779899 46.006062 13.074265 46 12.295C 46 11.242897 45.147102 10.39 44.095001 10.39ZM 11.905 14.215C 12.682903 14.221077 13.387596 13.757157 13.689507 13.040205C 13.991419 12.323253 13.830875 11.494979 13.282958 10.942748C 12.735043 10.390517 11.908052 10.223482 11.188754 10.519761C 10.469457 10.816041 10.000024 11.517073 10 12.295C 9.999968 13.349556 10.850476 14.206761 11.905 14.215Z"></path></g></g></g><g id="g-root-tx__8wiw231hlw3ye-fill" data-item-order="0" transform="translate(440, 50)"><g id="tx__8wiw231hlw3ye-fill" stroke="none" fill="#4e88e7"><g><text style="font: bold 20px Roboto, sans-serif; white-space: pre;" font-weight="bold" font-size="20px" font-family="Roboto, sans-serif"><tspan x="12" y="33.5" dominant-baseline="ideographic">细胞内液</tspan></text></g></g></g><g id="g-root-tx__qn6fgr1hlw4r1-fill" data-item-order="0" transform="translate(440, 86)"><g id="tx__qn6fgr1hlw4r1-fill" stroke="none" fill="#3a4455"><g><text style="font: 20px Roboto, sans-serif; white-space: pre;" font-size="20px" font-family="Roboto, sans-serif"><tspan x="12" y="33.5" dominant-baseline="ideographic">存在于细胞内，占体液的大部</tspan><tspan x="12" y="57.5" dominant-baseline="ideographic">分。</tspan></text></g></g></g><g id="g-root-tx__1um6fnv1hlw5c7-fill" data-item-order="0" transform="translate(14, 110)"><g id="tx__1um6fnv1hlw5c7-fill" stroke="none" fill="#484848"><g><text style="font: bold 20px Roboto, sans-serif; white-space: pre;" font-weight="bold" font-size="20px" font-family="Roboto, sans-serif"><tspan x="12" y="33.5" dominant-baseline="ideographic">体液如何分类？</tspan></text></g></g></g><g id="g-root-tx__94n26j1hluqdo-fill" data-item-order="0" transform="translate(440, 158)"><g id="tx__94n26j1hluqdo-fill" stroke="none" fill="#3cc583"><g><text style="font: bold 20px Roboto, sans-serif; white-space: pre;" font-weight="bold" font-size="20px" font-family="Roboto, sans-serif"><tspan x="12" y="33.5" dominant-baseline="ideographic">细胞外液</tspan></text></g></g></g><g id="g-root-tx__mg3kjv1hluosr-fill" data-item-order="0" transform="translate(440, 193.99996948242188)"><g id="tx__mg3kjv1hluosr-fill" stroke="none" fill="#374840"><g><text style="font: 20px Roboto, sans-serif; white-space: pre;" font-size="20px" font-family="Roboto, sans-serif"><tspan x="12" y="33.5" dominant-baseline="ideographic">存在于细胞外，包括血浆、组织</tspan><tspan x="12" y="57.5" dominant-baseline="ideographic">液等。</tspan></text></g></g></g><g id="g-root-sy_1_line_1d2e47f1hluosn-stroke" data-item-order="-20585" transform="translate(272.00244140625, 62.00909423828125)"><g id="sy_1_line_1d2e47f1hluosn-stroke" fill="none" stroke-linecap="round" stroke-linejoin="round" stroke-miterlimit="4" stroke="#4e88e7" stroke-width="2"><g><path d="M 115.997559 10.000887L 58.007559 10.000887C 44.757559 10.000887 34.007559 20.640887 34.007559 33.770887L 34.007559 40.270887C 34.007559 53.380887 24.227559 64.000887 10.997559 64.000887L 9.997559 64.000887"></path><path d="M 109.997559 16.490887L 116.497559 9.990887L 109.997559 3.490887" stroke-dasharray="none"></path></g></g></g><g id="g-root-sy_2_line-start_18mkm2z1hlupkw-stroke" data-item-order="-20579" transform="translate(372, 163.50912475585938)"><g id="sy_2_line-start_18mkm2z1hlupkw-stroke" fill="none" stroke-linecap="round" stroke-linejoin="round" stroke-miterlimit="4" stroke="#3cc583" stroke-width="2"><g><path d="M 10 10L 16.5 16.5L 10 23"></path></g></g></g><g id="g-root-sy_2_line_zqxlu31hluqdl-stroke" data-item-order="-20577" transform="translate(272.00244140625, 116.00912475585938)"><g id="sy_2_line_zqxlu31hluqdl-stroke" fill="none" stroke-linecap="round" stroke-linejoin="round" stroke-miterlimit="4" stroke="#3cc583" stroke-width="2"><g><path d="M 117.9975 64L 57.9958 64C 44.741 64 33.9958 53.3561 33.9958 40.2262L 33.9958 33.7243C 33.9958 20.6217 24.2248 10 10.9975 10L 10 10"></path></g></g></g><g id="g-root-sy_0_line_vb43pn1hlur5u-stroke" data-item-order="-20573" transform="translate(200, 116.00006103515625)"><g id="sy_0_line_vb43pn1hlur5u-stroke" fill="none" stroke-linecap="round" stroke-linejoin="round" stroke-miterlimit="4" stroke="#484848" stroke-width="2"><g><path d="M 82 10L 10 10"></path></g></g></g><g id="g-root-ic_tube_18itrkb1hlxj41-stroke" data-item-order="-3600" transform="translate(56, 38)"></g><g id="g-root-ic_2_vcd1vv1hlyxhe-stroke" data-item-order="-1296" transform="translate(392, 44.000030517578125)"></g><g id="g-root-ic_6_1cviw971hlw4jk-stroke" data-item-order="-1296" transform="translate(392, 152)"></g><g id="g-root-tx__8wiw231hlw3ye-stroke" data-item-order="0" transform="translate(440, 50)"></g><g id="g-root-tx__qn6fgr1hlw4r1-stroke" data-item-order="0" transform="translate(440, 86)"></g><g id="g-root-tx__1um6fnv1hlw5c7-stroke" data-item-order="0" transform="translate(14, 110)"></g><g id="g-root-tx__94n26j1hluqdo-stroke" data-item-order="0" transform="translate(440, 158)"></g><g id="g-root-tx__mg3kjv1hluosr-stroke" data-item-order="0" transform="translate(440, 193.99996948242188)"></g></g></g><path id="whwjb2j1iq73lw" d="M65.283 12.757a.35.35 0 0 0 .584.157l5.203-5.141-6.183 3.523.396 1.461zm-2.216-11.7a.35.35 0 0 0-.522.305v3.111l3.276-1.868-2.754-1.548zm3.728 2.105l-4.25 2.421v2.445l6.391-3.644-2.141-1.222zm4.708 3.303a.35.35 0 0 0 0-.609l-1.592-.9-7.365 4.199v1.782a.35.35 0 0 0 .523.305l8.435-4.777z M44.542 2.513c0-.433.355-.783.792-.783s.792.35.792.783-.355.783-.792.783-.792-.35-.792-.783zm59.171 0c0-.433.355-.783.792-.783s.792.35.792.783-.355.783-.792.783-.792-.35-.792-.783zm-85.951 7.636h-1.27v-.487c-.276.201-.864.609-1.881.609-1.202 0-2.274-.794-2.137-2.078.118-1.106 1.153-1.584 1.848-1.727l2.17-.345c0-.539-.29-.956-1.064-1.006s-1.21.305-1.571 1.017l-1.124-.605c1.218-2.631 5.029-1.764 5.029.414v4.207zm-1.27-2.86c.006.396-.062 1.112-.819 1.59-.587.37-1.841.299-1.903-.395-.049-.555.461-.791.906-.898l1.816-.297zm72.662 2.86h-1.27v-.487c-.276.201-.864.609-1.881.609-1.202 0-2.274-.794-2.137-2.078.118-1.106 1.153-1.584 1.848-1.727l2.17-.345c0-.539-.29-.956-1.064-1.006s-1.21.305-1.571 1.017l-1.124-.605c1.218-2.631 5.029-1.764 5.029.414v4.207zm-1.27-2.86c.006.396-.062 1.112-.82 1.59-.587.37-1.841.299-1.903-.395-.049-.555.461-.791.906-.898l1.816-.297zM99.096 10.149H97.85v-8.45h1.246v4.895l2.68-2.559h1.738l-2.633 2.535 2.715 3.578h-1.556l-2.077-2.707-.867.844v1.863zm6.053-6.114h-1.255v6.113h1.255V4.035zm-59.2 0h-1.255v6.113h1.255V4.035zm5.584 6.113V1.697h1.255v2.695c.361-.346 1-.485 1.47-.485 1.452 0 2.477 1.082 2.457 2.448v3.792h-1.27v-3.68c0-.408-.214-1.339-1.315-1.339-.968 0-1.342.756-1.342 1.339v3.681h-1.255zm-4.76-4.894V4.039h.621a.45.45 0 0 0 .45-.45v-.855h1.251v1.305h1.309v1.215h-1.309v3.109c0 .293.105.664.648.664.365 0 .531-.035.736-.07v1.137s-.361.113-.857.113c-1.398 0-1.777-1.051-1.777-1.788V5.254h-1.071zM36.528 4.039h-1.394l2.191 6.106h1.125l1.234-3.918 1.238 3.918h1.129l2.188-6.106h-1.383l-1.359 3.93-1.256-3.93h-1.124l-1.242 3.957-1.348-3.957zM26.212 7.141c-.02 1.566 1.187 3.129 3.223 3.129 1.566 0 2.383-.918 2.734-1.719L31.172 8c-.315.399-.801 1.094-1.738 1.094-1.145 0-1.825-.781-1.891-1.52h4.625c.074-.284.148-.995-.03-1.559-.336-1.064-1.221-2.102-2.839-2.102s-3.088 1.152-3.088 3.227zm1.363-.75h3.348c-.055-.43-.566-1.301-1.623-1.301a1.79 1.79 0 0 0-1.725 1.301zm-8.758.75c.038 1.758 1.277 3.133 3.145 3.133 1.074 0 1.723-.477 1.961-.672v.547h1.242V1.703h-1.258v2.888c-.414-.36-1.062-.68-1.93-.68-1.91 0-3.198 1.473-3.16 3.23zm1.309-.08c0 1.119.723 1.978 1.836 1.978a1.88 1.88 0 0 0 1.94-1.904c0-1.371-1.011-1.99-1.972-1.99s-1.805.798-1.805 1.916zm76.683-.028C96.771 5.275 95.532 3.9 93.664 3.9c-1.074 0-1.723.477-1.961.672v-.547h-1.242v8.22h1.258V9.583c.414.36 1.063.68 1.93.68 1.91 0 3.198-1.473 3.16-3.23zm-1.309.08c0-1.119-.723-1.978-1.836-1.978a1.88 1.88 0 0 0-1.94 1.904c0 1.371 1.011 1.99 1.972 1.99S95.5 8.231 95.5 7.113zM106.441 10.173V4.036h1.254v.382c.361-.346 1-.485 1.47-.485 1.452 0 2.477 1.082 2.457 2.448v3.792h-1.27V6.492c0-.408-.214-1.339-1.315-1.339-.969 0-1.342.756-1.342 1.339v3.681h-1.254zm-30.383-.021V1.824h1.084l4.215 5.777V1.824h1.32v8.328h-1.094l-4.207-5.796v5.796h-1.319zM5.24 10.149H4V2.377h1.014l2.664 3.597 2.654-3.592h1.03v7.766h-1.256V4.762L7.678 8.068 5.24 4.742v5.407z" transform="translate(20, 275.9999694824219)" fill="#80808088" stroke="none"></path></svg>