<?xml version="1.0" encoding="utf-8" standalone="yes"?>
<!DOCTYPE svg PUBLIC "-//W3C//DTD SVG 1.1//EN" "http://www.w3.org/Graphics/SVG/1.1/DTD/svg11.dtd">
<svg width="744" height="576" viewBox="0 0 744 576" style="fill:none;stroke:none;fill-rule:evenodd;clip-rule:evenodd;stroke-linecap:round;stroke-linejoin:round;stroke-miterlimit:1.5;" version="1.1" xmlns="http://www.w3.org/2000/svg" xmlns:xlink="http://www.w3.org/1999/xlink"><style class="text-font-style fontImports" data-font-family="Roboto">@import url('https://fonts.googleapis.com/css2?family=Roboto:wght@400;700&amp;display=block');</style><g id="items" style="isolation: isolate"><g id="blend" style="mix-blend-mode: normal"><g id="g-root-cp_3_g-3_m9uqho1hbtqf9-fill" data-item-order="-334072" transform="translate(41, 331.9999694824219)"><g id="cp_3_g-3_m9uqho1hbtqf9-fill" stroke="none" fill="#1eabda"><g><path d="M 25.2246 23.1875C 25.0807 23.1635 24.9344 23.1395 24.7859 23.1151C 21.8374 22.6315 17.9612 21.9956 12.725 18.1875C 10.1861 16.341 9.7448 13.0739 10.114 10L 218.225 10L 218.225 28.3552C 237.842 31.8915 252.725 49.0515 252.725 69.6875C 252.725 90.3235 237.842 107.4835 218.225 111.02L 218.225 167.188L 142.225 167.188C 141.891 164.354 141.125 157.587 140.725 153.188C 140.225 147.688 137.725 135.688 136.225 132.188C 134.725 128.688 132.225 125.188 126.225 121.688C 120.225 118.188 114.225 117.688 106.7246 117.688C 103.6054 117.688 100.8321 118.12 97.3616 118.661C 92.4876 119.421 86.2384 120.395 75.7246 120.688C 57.9994 121.18 50.4561 114.884 47.3652 112.305L 47.2246 112.188C 44.2246 109.6875 43.7246 99.1875 45.2246 91.6875C 46.4115 85.7528 46.0331 84.2011 45.5757 82.3256C 45.4551 81.8309 45.329 81.3136 45.2246 80.6875C 44.9059 78.7751 43.3681 76.8627 41.5179 74.5618C 40.4656 73.2532 39.3122 71.8189 38.2246 70.1875C 35.8246 66.5875 36.5579 62.3542 37.2246 60.6875C 38.4589 58.6303 38.6775 57.9274 38.9949 56.9071C 39.0632 56.6875 39.136 56.4532 39.2246 56.1875C 39.5336 55.2604 38.3148 54.7154 36.6304 53.9621C 35.5894 53.4965 34.3705 52.9514 33.2246 52.1875C 30.8246 50.5875 30.2246 46.8542 30.2246 45.1875L 30.2246 28.6875C 30.2246 25.6875 28.2246 23.6875 25.2246 23.1875ZM 210.5 105C 230.106 105 246 89.1061 246 69.5C 246 49.8939 230.106 34 210.5 34C 190.894 34 175 49.8939 175 69.5C 175 89.1061 190.894 105 210.5 105Z"></path></g></g></g><g id="g-root-cp_2_g-2_de7q8s1hbtr7z-fill" data-item-order="-334068" transform="translate(41.114013671875, 211.99996948242188)"><g id="cp_2_g-2_de7q8s1hbtr7z-fill" stroke="none" fill="#92bd39"><g><path d="M 26.6107 50.1875C 25.0107 46.5875 24.9442 28.0208 25.1109 19.1875C 25.0829 16.7193 25.322 13.612 25.9221 10L 218.111 10L 218.111 28.3552C 237.728 31.8915 252.611 49.0515 252.611 69.6875C 252.611 90.3235 237.728 107.4835 218.111 111.02L 218.111 130L 10 130C 10.2706 127.747 10.9766 125.597 11.6111 124.188C 14.4444 117.854 21.1111 103.5875 25.1111 97.1875C 30.1111 89.1875 33.6111 78.1875 34.6111 71.6875C 35.3779 66.7033 31.4406 59.3672 28.6608 54.1878C 27.8154 52.6126 27.0771 51.2369 26.6107 50.1875ZM 210.386 105C 229.992 105 245.886 89.1061 245.886 69.5C 245.886 49.8939 229.992 34 210.386 34C 190.78 34 174.886 49.8939 174.886 69.5C 174.886 89.1061 190.78 105 210.386 105Z"></path></g></g></g><g id="g-root-cp_1_g-1_4j77301hbtpmp-fill" data-item-order="-334064" transform="translate(57.0360107421875, 107.99996948242188)"><g id="cp_1_g-1_4j77301hbtpmp-fill" stroke="none" fill="#3cc583"><g><path d="M 56.6888 39.686531C 95.0888 8.086531 157.022 7.853231 183.189 11.686531L 188.091 12.202831C 190.24 11.863631 192.444 11.687531 194.689 11.687531C 217.885 11.687531 236.689 30.491531 236.689 53.687531C 236.689 74.323531 221.806 91.483531 202.189 95.019831L 202.189 114.000031L 10 114.000031C 12.9661 96.148331 24.7509 65.968831 56.6888 39.686531ZM 194.464 89.000031C 214.07 89.000031 229.964 73.106131 229.964 53.500031C 229.964 33.893931 214.07 18.000031 194.464 18.000031C 174.858 18.000031 158.964 33.893931 158.964 53.500031C 158.964 73.106131 174.858 89.000031 194.464 89.000031Z"></path></g></g></g><g id="g-root-ic_manu_14494f01hbtp8m-fill" data-item-order="-2304" transform="translate(218, 128)"><g id="ic_manu_14494f01hbtp8m-fill" stroke="none" fill="#3cc583"><g><path d="M 25.380001 37.48C 25.656143 37.48 25.880001 37.703857 25.880001 37.98L 25.880001 40.700001C 25.880001 41.804569 26.775431 42.700001 27.879999 42.700001C 28.98457 42.700001 29.879999 41.804569 29.879999 40.700001L 29.879999 38C 29.881819 37.863159 29.939648 37.733047 30.040001 37.639999C 30.127468 37.545944 30.251665 37.494804 30.379999 37.5L 37.379997 37.5C 37.656143 37.5 37.879997 37.723858 37.879997 38L 37.879997 40.720001C 37.879997 41.82457 38.775429 42.720001 39.879997 42.720001C 40.98457 42.720001 41.879997 41.82457 41.879997 40.720001L 41.879997 38C 41.881821 37.863159 41.939648 37.733047 42.040001 37.639999C 42.121708 37.537956 42.25013 37.485077 42.380001 37.5L 49.380001 37.5C 49.656143 37.5 49.880001 37.723858 49.880001 38L 49.880001 40.700001C 49.880001 41.804569 50.775429 42.700001 51.880001 42.700001C 52.98457 42.700001 53.880001 41.804569 53.880001 40.700001L 53.880001 27.5C 53.880001 26.39543 52.98457 25.5 51.880001 25.5C 50.775429 25.5 49.880001 26.39543 49.880001 27.5L 49.880001 33C 49.885803 33.134308 49.835018 33.2649 49.739998 33.360001C 49.639519 33.446426 49.51247 33.495834 49.379997 33.5L 42.380001 33.5C 42.112213 33.480801 41.8992 33.267788 41.880001 33L 41.879997 27.5C 41.879997 26.39543 40.98457 25.5 39.879997 25.5C 38.775429 25.5 37.879997 26.39543 37.879997 27.5L 37.879997 32.98C 37.885719 33.114281 37.834881 33.244808 37.739845 33.339844C 37.644806 33.434883 37.514278 33.485718 37.379997 33.479996L 30.379999 33.48C 30.103857 33.48 29.879999 33.256142 29.879999 32.98L 29.879999 27.5C 29.879999 26.39543 28.98457 25.5 27.879999 25.5C 26.775431 25.5 25.880001 26.39543 25.880001 27.5L 25.880001 32.98C 25.885195 33.108334 25.834053 33.232533 25.74 33.32C 25.646954 33.420353 25.51684 33.47818 25.380001 33.48L 22.380001 33.48C 19.066292 33.480003 16.380001 30.793709 16.380001 27.480001C 16.380001 26.375431 15.48457 25.48 14.38 25.48C 13.275431 25.48 12.38 26.375431 12.38 27.48C 12.38 33.002846 16.857153 37.48 22.380001 37.48L 25.380001 37.48ZM 32.400002 49.400002C 32.382351 47.246796 30.815638 45.41964 28.690334 45.073658C 26.565033 44.72768 24.499683 45.96357 23.799999 48C 23.674442 48.376545 23.705393 48.787739 23.885906 49.141243C 24.066418 49.494743 24.381359 49.760925 24.76 49.880001C 25.148718 50.0392 25.586376 50.028114 25.966537 49.849438C 26.346695 49.670765 26.634518 49.340874 26.76 48.940002C 26.940439 48.401295 27.432581 48.028221 28 48C 28.776499 47.999924 29.409063 48.623577 29.42 49.399998C 29.409891 49.705528 29.289053 49.996964 29.08 50.220001L 23.82 55.439999C 23.400253 55.876247 23.275043 56.517956 23.5 57.079998C 23.735996 57.642967 24.289608 58.006771 24.900002 58L 30.9 58C 31.728428 58 32.400002 57.32843 32.400002 56.5C 32.400002 55.671574 31.728428 55 30.900002 55L 29.719999 55C 29.520557 55.000694 29.339777 54.882793 29.26 54.700001C 29.150904 54.52927 29.150904 54.310722 29.259998 54.139996L 31.08 52.34C 31.888016 51.570667 32.361969 50.515045 32.400002 49.400002ZM 40.400002 20L 38.900002 20C 38.623856 20 38.400002 19.776142 38.400002 19.5C 38.400002 18.671574 37.728428 18 36.900002 18C 36.071571 18 35.400002 18.671574 35.400002 19.5C 35.400002 21.432997 36.967003 23 38.900002 23L 40.400002 23C 41.937454 22.999039 43.338291 22.116974 44.003593 20.730925C 44.668896 19.344877 44.480907 17.700172 43.52 16.5C 44.088909 15.790884 44.399292 14.909122 44.400002 14C 44.400002 11.790861 42.609138 10 40.400002 10L 38.900002 10C 36.967003 10 35.400002 11.567003 35.400002 13.5C 35.400002 14.328427 36.071571 15 36.900002 15C 37.728428 15 38.400002 14.328427 38.400002 13.5C 38.399788 13.231483 38.611698 13.01074 38.879997 13L 40.400002 13C 40.947815 13.01064 41.389359 13.452183 41.400002 14C 41.400002 14.552284 40.952286 15 40.400002 15C 39.571571 15 38.900002 15.671574 38.900002 16.5C 38.900002 17.328426 39.571571 18 40.400002 18C 40.952286 18 41.400002 18.447716 41.400002 19C 41.389359 19.547817 40.947815 19.989361 40.400002 20ZM 10 10M 24.799999 14.7L 25.6 14.1C 25.754791 13.98662 25.965206 13.98662 26.119999 14.1C 26.285452 14.185877 26.392279 14.353747 26.4 14.539999L 26.4 19.540001C 26.386362 19.766281 26.222195 19.955072 26 20C 25.171574 20 24.5 20.671574 24.5 21.5C 24.5 22.328426 25.171574 23 26 23L 30 23C 30.828428 23 31.5 22.328426 31.5 21.5C 31.5 20.671574 30.828428 20 30 20C 29.723858 20 29.5 19.776142 29.5 19.5L 29.5 12.5C 29.5 11.55307 28.964994 10.687412 28.118034 10.263932C 27.271074 9.840452 26.257544 9.931842 25.5 10.5L 23.1 12.3C 22.43726 12.797056 22.302944 13.737259 22.799999 14.4C 23.297058 15.062742 24.237259 15.197056 24.900002 14.700001ZM 53.02 15C 51.400002 14.860001 51.400002 14.8 51.400002 14L 51.400002 13.5C 51.396923 13.348095 51.463085 13.203033 51.579803 13.105766C 51.696526 13.008499 51.851139 12.969582 52 13L 56 13C 56.784649 12.9379 57.392097 12.287066 57.399998 11.5C 57.392097 10.712934 56.784649 10.0621 56 10L 50 10C 49.171574 10 48.5 10.671573 48.5 11.5L 48.5 14C 48.5 17.58 51.439999 17.860001 52.860001 18C 54.279999 18.139999 54.5 18.220001 54.5 19C 54.5 19.552284 54.052284 20 53.5 20L 50 20C 49.171574 20 48.5 20.671574 48.5 21.5C 48.5 22.328426 49.171574 23 50 23L 53.400002 23C 55.609138 23 57.400002 21.209139 57.400002 19C 57.400002 15.42 54.439999 15.139999 53.02 15ZM 50.900002 49C 50.732159 49.014488 50.579014 48.903885 50.540001 48.739998C 50.495953 48.580082 50.560715 48.410076 50.700001 48.32C 51.09502 48.094212 51.545307 47.983372 52 48C 52.82843 48 53.5 47.328426 53.5 46.5C 53.5 45.671574 52.82843 45 52 45C 48.962437 45 46.5 47.462437 46.5 50.5L 46.5 53.5C 46.5 55.985283 48.514717 58 51 58C 53.485283 58 55.5 55.985283 55.5 53.5C 55.5 51.014717 53.485283 49 51 49ZM 50.900002 55C 50.071575 55 49.400002 54.32843 49.400002 53.5C 49.400002 52.671574 50.071575 52 50.900002 52C 51.728428 52 52.400002 52.671574 52.400002 53.5C 52.400002 54.32843 51.728428 55 50.900002 55ZM 41.220001 45.18C 37.650513 46.953194 35.134487 50.315315 34.440002 54.240002C 34.359375 54.674042 34.476715 55.121414 34.760002 55.460003C 35.069759 55.81913 35.52607 56.017849 36 56L 40 56C 40.276142 56 40.5 56.223858 40.5 56.5C 40.5 57.32843 41.171574 58 42 58C 42.828426 58 43.5 57.32843 43.5 56.5L 43.5 46.5C 43.501041 45.977772 43.230396 45.492592 42.785496 45.21912C 42.340595 44.945652 41.785484 44.923256 41.32 45.16ZM 39.5 50.240002C 39.638161 50.079414 39.862526 50.023323 40.059998 50.099998C 40.255062 50.171623 40.388756 50.352505 40.399998 50.559998L 40.400002 52.560001C 40.400002 52.836143 40.17614 53.060001 39.900002 53.060001L 38.639999 53.060001C 38.464638 53.071037 38.299522 52.976685 38.220001 52.82C 38.141735 52.669567 38.141735 52.490425 38.219997 52.339996C 38.562607 51.592102 38.992241 50.887234 39.5 50.240002ZM 18.66 17.700001C 18.576057 17.504972 18.643362 17.277817 18.82 17.16C 20.158049 16.122467 20.697903 14.354868 20.167866 12.746793C 19.637829 11.138718 18.152737 10.038558 16.459999 10L 12.24 10C 11.334253 10 10.6 10.734253 10.6 11.64L 10.6 20.98C 10.6 21.885746 11.334253 22.619999 12.24 22.619999C 12.676596 22.625423 13.096895 22.45438 13.405638 22.145638C 13.714381 21.836895 13.885424 21.416595 13.88 20.98L 13.88 18.42C 13.909342 18.186008 14.104313 18.007992 14.34 18L 14.88 18C 15.100442 18.000652 15.298355 18.135235 15.38 18.34L 16.66 21.639999C 17.002417 22.479473 17.960527 22.882416 18.799999 22.540001C 19.639473 22.197584 20.042416 21.239473 19.700001 20.400002ZM 13.88 14.2L 13.88 13.74C 13.88 13.485949 14.085949 13.28 14.34 13.28L 16.459999 13.28C 16.64917 13.279922 16.830317 13.356412 16.962181 13.492045C 17.094048 13.627679 17.165405 13.810907 17.16 14C 17.16 14.3866 16.8466 14.7 16.459999 14.7L 14.34 14.7C 14.212658 14.694805 14.092609 14.639179 14.006319 14.545385C 13.92003 14.451592 13.874583 14.327333 13.88 14.2Z"></path></g></g></g><g id="g-root-ic_heat_hz11241hbtqmh-fill" data-item-order="-2304" transform="translate(218, 247.99996948242188)"><g id="ic_heat_hz11241hbtqmh-fill" stroke="none" fill="#92bd39"><g><path d="M 58 29C 58 28.447716 57.552284 28 57 28L 11 28C 10.447715 28 10 28.447716 10 29L 10 34C 10 35.104568 10.895431 36 12 36L 14.4 36C 14.781054 36.003891 15.128162 36.219868 15.299999 36.559998L 16.940001 39.84C 17.443565 40.859238 18.483162 41.503166 19.620001 41.5L 48.380001 41.5C 49.516842 41.503166 50.556438 40.859238 51.060001 39.840004L 52.700001 36.559998C 52.871838 36.219868 53.218945 36.003891 53.599998 36L 56 36C 57.104568 36 58 35.104568 58 34ZM 48 37C 47.828163 37.340134 47.481052 37.55611 47.099998 37.559998L 20.860001 37.559998C 20.480009 37.530251 20.148308 37.291115 20 36.939999L 19 34.940002C 18.828512 34.642975 18.828512 34.277023 19 33.979996C 19.185312 33.683029 19.50996 33.501831 19.860001 33.5L 48.139999 33.5C 48.49004 33.501831 48.814686 33.683029 49 33.98C 49.171486 34.277023 49.171486 34.642975 48.999996 34.939999ZM 35.279999 44.459999C 34.429482 43.753075 33.166924 43.86948 32.459999 44.720001C 31.753075 45.570518 31.869482 46.833076 32.720001 47.540001C 33.099998 47.860001 33.279999 48 32.220001 50.18C 31.32 52.02 29.82 55.119999 32.720001 57.540001C 33.079826 57.838161 33.532696 58.000912 34 58C 34.594864 58.000965 35.159286 57.73708 35.540001 57.279999C 35.880119 56.871834 36.043854 56.345112 35.995071 55.816055C 35.946297 55.287003 35.689014 54.799095 35.279999 54.459999C 34.959999 54.18 34.779999 54.060001 35.82 51.919998C 36.860001 49.779999 38.239998 46.919998 35.279999 44.459999ZM 22.76 44.459999C 21.909481 43.753075 20.646923 43.86948 19.939999 44.720001C 19.233074 45.570518 19.349482 46.833076 20.200001 47.540001C 20.58 47.860001 20.74 48 19.700001 50.18C 18.799999 52.02 17.299999 55.119999 20.200001 57.540001C 20.559824 57.838161 21.012695 58.000912 21.48 58C 22.323778 58.001652 23.077826 57.473576 23.364742 56.680077C 23.651657 55.886574 23.409712 54.998367 22.76 54.459999C 22.42 54.18 22.26 54.060001 23.299999 51.919998C 24.34 49.779999 25.720001 46.919998 22.76 44.459999ZM 47.759998 44.459999C 46.909481 43.753075 45.646923 43.86948 44.939999 44.720001C 44.233074 45.570518 44.34948 46.833076 45.200001 47.540001C 45.580002 47.860001 45.759998 48 44.700001 50.18C 43.799999 52.02 42.299999 55.119999 45.200001 57.540001C 45.559826 57.838161 46.012695 58.000912 46.48 58C 47.074863 58.000965 47.639286 57.73708 48.02 57.279999C 48.360119 56.871834 48.523853 56.345112 48.475075 55.816055C 48.426296 55.287003 48.169014 54.799095 47.759998 54.459999C 47.439999 54.18 47.259998 54.060001 48.299999 51.919998C 49.34 49.779999 50.720001 46.919998 47.759998 44.459999ZM 53 10L 15 10C 12.238576 10 10 12.238576 10 15L 10 24C 10 24.552284 10.447715 25 11 25L 57 25C 57.552284 25 58 24.552284 58 24L 58 15C 58 12.238576 55.761425 10 53 10ZM 44 21C 42.895432 21 42 20.104568 42 19C 42 17.895432 42.895432 17 44 17C 45.104568 17 46 17.895432 46 19C 46 20.104568 45.104568 21 44 21ZM 51 21C 49.895432 21 49 20.104568 49 19C 49 17.895432 49.895432 17 51 17C 52.104568 17 53 17.895432 53 19C 53 20.104568 52.104568 21 51 21Z"></path></g></g></g><g id="g-root-ic_clou_i0wgbg1hbtpms-fill" data-item-order="-2304" transform="translate(218, 367.9999694824219)"><g id="ic_clou_i0wgbg1hbtpms-fill" stroke="none" fill="#1eabda"><g><path d="M 44 10L 24 10C 20.686291 10 18 12.686292 18 16L 18 52C 18 55.313709 20.686291 58 24 58L 44 58C 47.313709 58 50 55.313709 50 52L 50 16C 50 12.686292 47.313709 10 44 10ZM 46 52C 46 53.104568 45.104568 54 44 54L 24 54C 22.895432 54 22 53.104568 22 52L 22 16C 22 14.895431 22.895432 14 24 14L 44 14C 45.104568 14 46 14.895431 46 16ZM 38 48L 30 48C 29.171574 48 28.5 48.671574 28.5 49.5C 28.5 50.32843 29.171574 51 30 51L 38 51C 38.82843 51 39.5 50.32843 39.5 49.5C 39.5 48.671574 38.82843 48 38 48ZM 38.200001 37.52C 39.746399 37.52 41 36.266396 41 34.720001C 40.99057 33.895905 40.626099 33.115929 40 32.580002C 39.860275 32.45446 39.79911 32.263329 39.839996 32.079998C 40.044971 31.454132 39.928688 30.767469 39.529083 30.243982C 39.129475 29.720497 38.497765 29.42729 37.84 29.459999C 37.689949 29.47533 37.546257 29.395498 37.48 29.26C 36.788208 27.72611 35.17836 26.821289 33.5084 27.02774C 31.83844 27.234192 30.497416 28.503819 30.199999 30.159998C 30.157196 30.360537 30.000536 30.517195 29.799999 30.559999C 28.174946 30.907341 27.010237 32.338272 27 34C 27 35.932999 28.567003 37.5 30.5 37.5Z"></path></g></g></g><g id="g-root-tx__1uoo8t81hbtq8b-fill" data-item-order="0" transform="translate(290, 38)"><g id="tx__1uoo8t81hbtq8b-fill" stroke="none" fill="#484848"><g><text style="font: 20px Roboto, sans-serif; white-space: pre;" font-size="20px" font-family="Roboto, sans-serif"><tspan x="12" y="33.5" dominant-baseline="ideographic">控制系统的类型</tspan></text></g></g></g><g id="g-root-tx__1cy0pek1hbtpfo-fill" data-item-order="0" transform="translate(302, 122)"><g id="tx__1cy0pek1hbtpfo-fill" stroke="none" fill="#3cc583"><g><text style="font: bold 20px Roboto, sans-serif; white-space: pre;" font-weight="bold" font-size="20px" font-family="Roboto, sans-serif"><tspan x="12" y="33.5" dominant-baseline="ideographic">非自动控制系统</tspan></text></g></g></g><g id="g-root-tx__1uqjo2k1hbtp8l-fill" data-item-order="0" transform="translate(302, 158)"><g id="tx__1uqjo2k1hbtp8l-fill" stroke="none" fill="#374840"><g><text style="font: 15px Roboto, sans-serif; white-space: pre;" font-size="15px" font-family="Roboto, sans-serif"><tspan x="12" y="30.5" dominant-baseline="ideographic">需要人工干预进行控制</tspan></text></g></g></g><g id="g-root-tx__18lbkpo1hbtqmf-fill" data-item-order="0" transform="translate(302, 241.99996948242188)"><g id="tx__18lbkpo1hbtqmf-fill" stroke="none" fill="#92bd39"><g><text style="font: bold 20px Roboto, sans-serif; white-space: pre;" font-weight="bold" font-size="20px" font-family="Roboto, sans-serif"><tspan x="12" y="33.5" dominant-baseline="ideographic">反馈控制系统</tspan></text></g></g></g><g id="g-root-tx__vahjfg1hbtp1k-fill" data-item-order="0" transform="translate(302, 277.9999694824219)"><g id="tx__vahjfg1hbtp1k-fill" stroke="none" fill="#424736"><g><text style="font: 15px Roboto, sans-serif; white-space: pre;" font-size="15px" font-family="Roboto, sans-serif"><tspan x="12" y="30.5" dominant-baseline="ideographic">使用输出来调整输入</tspan></text></g></g></g><g id="g-root-tx__18n6zz01hbtpmq-fill" data-item-order="0" transform="translate(302, 361.9999694824219)"><g id="tx__18n6zz01hbtpmq-fill" stroke="none" fill="#1eabda"><g><text style="font: bold 20px Roboto, sans-serif; white-space: pre;" font-weight="bold" font-size="20px" font-family="Roboto, sans-serif"><tspan x="12" y="33.5" dominant-baseline="ideographic">前馈控制系统</tspan></text></g></g></g><g id="g-root-tx__vbqhlo1hbtr7n-fill" data-item-order="0" transform="translate(302, 397.9999694824219)"><g id="tx__vbqhlo1hbtr7n-fill" stroke="none" fill="#32444a"><g><text style="font: 15px Roboto, sans-serif; white-space: pre;" font-size="15px" font-family="Roboto, sans-serif"><tspan x="12" y="30.5" dominant-baseline="ideographic">基于预测调整输入</tspan></text></g></g></g><g id="g-root-cp_3_g-3_m9uqho1hbtqf9-stroke" data-item-order="-334072" transform="translate(41, 331.9999694824219)"><g id="cp_3_g-3_m9uqho1hbtqf9-stroke" fill="none" stroke-linecap="round" stroke-linejoin="round" stroke-miterlimit="4" stroke="#ffffff" stroke-width="2"><g><path d="M 25.2246 23.1875C 25.0807 23.1635 24.9344 23.1395 24.7859 23.1151C 21.8374 22.6315 17.9611 21.9956 12.725 18.1875C 10.1861 16.341 9.7448 13.0739 10.114 10L 218.2246 10L 218.2246 28.3552C 237.842 31.8915 252.7246 49.0515 252.7246 69.6875C 252.7246 90.3235 237.842 107.4835 218.2246 111.0198L 218.2246 167.1875L 142.2246 167.1875C 141.8913 164.3542 141.1246 157.5875 140.7246 153.1875C 140.2246 147.6875 137.7246 135.6875 136.2246 132.1875C 134.7246 128.6875 132.2246 125.1875 126.2246 121.6875C 120.2246 118.1875 114.2246 117.6875 106.7246 117.6875C 103.6054 117.6875 100.8321 118.1199 97.3616 118.6611C 92.4876 119.421 86.2384 120.3954 75.7246 120.6875C 57.9994 121.1799 50.4561 114.8844 47.3652 112.3048L 47.2246 112.1875C 44.2246 109.6875 43.7246 99.1875 45.2246 91.6875C 46.4115 85.7528 46.0331 84.2011 45.5757 82.3256C 45.4551 81.8309 45.329 81.3136 45.2246 80.6875C 44.9059 78.7751 43.3681 76.8627 41.5179 74.5618C 40.4656 73.2532 39.3122 71.8189 38.2246 70.1875C 35.8246 66.5875 36.5579 62.3542 37.2246 60.6875C 38.4589 58.6303 38.6775 57.9274 38.9949 56.9071C 39.0632 56.6875 39.136 56.4532 39.2246 56.1875C 39.5336 55.2604 38.3148 54.7154 36.6304 53.9621C 35.5894 53.4965 34.3705 52.9514 33.2246 52.1875C 30.8246 50.5875 30.2246 46.8542 30.2246 45.1875L 30.2246 28.6875C 30.2246 25.6875 28.2246 23.6875 25.2246 23.1875ZM 210.5 105C 230.1061 105 246 89.1061 246 69.5C 246 49.8939 230.1061 34 210.5 34C 190.8939 34 175 49.8939 175 69.5C 175 89.1061 190.8939 105 210.5 105Z"></path></g></g></g><g id="g-root-cp_2_g-2_de7q8s1hbtr7z-stroke" data-item-order="-334068" transform="translate(41.114013671875, 211.99996948242188)"><g id="cp_2_g-2_de7q8s1hbtr7z-stroke" fill="none" stroke-linecap="round" stroke-linejoin="round" stroke-miterlimit="4" stroke="#ffffff" stroke-width="2"><g><path d="M 26.6107 50.1875C 25.0107 46.5875 24.9442 28.0208 25.1109 19.1875C 25.0829 16.7193 25.322 13.612 25.9221 10L 218.1106 10L 218.1106 28.3552C 237.7281 31.8915 252.6106 49.0515 252.6106 69.6875C 252.6106 90.3235 237.7281 107.4835 218.1106 111.0198L 218.1106 130L 10 130C 10.2706 127.7468 10.9766 125.5974 11.6111 124.1875C 14.4444 117.8542 21.1111 103.5875 25.1111 97.1875C 30.1111 89.1875 33.6111 78.1875 34.6111 71.6875C 35.3779 66.7033 31.4406 59.3672 28.6608 54.1878C 27.8154 52.6126 27.0771 51.2369 26.6107 50.1875ZM 210.3857 105C 229.9919 105 245.8857 89.1061 245.8857 69.5C 245.8857 49.8939 229.9919 34 210.3857 34C 190.7796 34 174.8857 49.8939 174.8857 69.5C 174.8857 89.1061 190.7796 105 210.3857 105Z"></path></g></g></g><g id="g-root-cp_1_g-1_4j77301hbtpmp-stroke" data-item-order="-334064" transform="translate(57.0360107421875, 107.99996948242188)"><g id="cp_1_g-1_4j77301hbtpmp-stroke" fill="none" stroke-linecap="round" stroke-linejoin="round" stroke-miterlimit="4" stroke="#ffffff" stroke-width="2"><g><path d="M 56.6888 39.686531C 95.0888 8.086531 157.0222 7.853231 183.1888 11.686531L 188.0906 12.202831C 190.2401 11.863631 192.4437 11.687531 194.6886 11.687531C 217.8845 11.687531 236.6886 30.491531 236.6886 53.687531C 236.6886 74.323531 221.806 91.483531 202.1886 95.019831L 202.1886 114.000031L 10 114.000031C 12.966 96.148331 24.7509 65.968831 56.6888 39.686531ZM 194.4639 89.000031C 214.07 89.000031 229.9639 73.106131 229.9639 53.500031C 229.9639 33.893931 214.07 18.000031 194.4639 18.000031C 174.8578 18.000031 158.9639 33.893931 158.9639 53.500031C 158.9639 73.106131 174.8578 89.000031 194.4639 89.000031Z"></path></g></g></g><g id="g-root-ic_manu_14494f01hbtp8m-stroke" data-item-order="-2304" transform="translate(218, 128)"></g><g id="g-root-ic_heat_hz11241hbtqmh-stroke" data-item-order="-2304" transform="translate(218, 247.99996948242188)"></g><g id="g-root-ic_clou_i0wgbg1hbtpms-stroke" data-item-order="-2304" transform="translate(218, 367.9999694824219)"></g><g id="g-root-tx__1uoo8t81hbtq8b-stroke" data-item-order="0" transform="translate(290, 38)"></g><g id="g-root-tx__1cy0pek1hbtpfo-stroke" data-item-order="0" transform="translate(302, 122)"></g><g id="g-root-tx__1uqjo2k1hbtp8l-stroke" data-item-order="0" transform="translate(302, 158)"></g><g id="g-root-tx__18lbkpo1hbtqmf-stroke" data-item-order="0" transform="translate(302, 241.99996948242188)"></g><g id="g-root-tx__vahjfg1hbtp1k-stroke" data-item-order="0" transform="translate(302, 277.9999694824219)"></g><g id="g-root-tx__18n6zz01hbtpmq-stroke" data-item-order="0" transform="translate(302, 361.9999694824219)"></g><g id="g-root-tx__vbqhlo1hbtr7n-stroke" data-item-order="0" transform="translate(302, 397.9999694824219)"></g></g></g><path id="w1uqjhr01i5twct" d="M65.283 12.757a.35.35 0 0 0 .584.157l5.203-5.141-6.183 3.523.396 1.461zm-2.216-11.7a.35.35 0 0 0-.522.305v3.111l3.276-1.868-2.754-1.548zm3.728 2.105l-4.25 2.421v2.445l6.391-3.644-2.141-1.222zm4.708 3.303a.35.35 0 0 0 0-.609l-1.592-.9-7.365 4.199v1.782a.35.35 0 0 0 .523.305l8.435-4.777z M44.542 2.513c0-.433.355-.783.792-.783s.792.35.792.783-.355.783-.792.783-.792-.35-.792-.783zm59.171 0c0-.433.355-.783.792-.783s.792.35.792.783-.355.783-.792.783-.792-.35-.792-.783zm-85.951 7.636h-1.27v-.487c-.276.201-.864.609-1.881.609-1.202 0-2.274-.794-2.137-2.078.118-1.106 1.153-1.584 1.848-1.727l2.17-.345c0-.539-.29-.956-1.064-1.006s-1.21.305-1.571 1.017l-1.124-.605c1.218-2.631 5.029-1.764 5.029.414v4.207zm-1.27-2.86c.006.396-.062 1.112-.819 1.59-.587.37-1.841.299-1.903-.395-.049-.555.461-.791.906-.898l1.816-.297zm72.662 2.86h-1.27v-.487c-.276.201-.864.609-1.881.609-1.202 0-2.274-.794-2.137-2.078.118-1.106 1.153-1.584 1.848-1.727l2.17-.345c0-.539-.29-.956-1.064-1.006s-1.21.305-1.571 1.017l-1.124-.605c1.218-2.631 5.029-1.764 5.029.414v4.207zm-1.27-2.86c.006.396-.062 1.112-.82 1.59-.587.37-1.841.299-1.903-.395-.049-.555.461-.791.906-.898l1.816-.297zM99.096 10.149H97.85v-8.45h1.246v4.895l2.68-2.559h1.738l-2.633 2.535 2.715 3.578h-1.556l-2.077-2.707-.867.844v1.863zm6.053-6.114h-1.255v6.113h1.255V4.035zm-59.2 0h-1.255v6.113h1.255V4.035zm5.584 6.113V1.697h1.255v2.695c.361-.346 1-.485 1.47-.485 1.452 0 2.477 1.082 2.457 2.448v3.792h-1.27v-3.68c0-.408-.214-1.339-1.315-1.339-.968 0-1.342.756-1.342 1.339v3.681h-1.255zm-4.76-4.894V4.039h.621a.45.45 0 0 0 .45-.45v-.855h1.251v1.305h1.309v1.215h-1.309v3.109c0 .293.105.664.648.664.365 0 .531-.035.736-.07v1.137s-.361.113-.857.113c-1.398 0-1.777-1.051-1.777-1.788V5.254h-1.071zM36.528 4.039h-1.394l2.191 6.106h1.125l1.234-3.918 1.238 3.918h1.129l2.188-6.106h-1.383l-1.359 3.93-1.256-3.93h-1.124l-1.242 3.957-1.348-3.957zM26.212 7.141c-.02 1.566 1.187 3.129 3.223 3.129 1.566 0 2.383-.918 2.734-1.719L31.172 8c-.315.399-.801 1.094-1.738 1.094-1.145 0-1.825-.781-1.891-1.52h4.625c.074-.284.148-.995-.03-1.559-.336-1.064-1.221-2.102-2.839-2.102s-3.088 1.152-3.088 3.227zm1.363-.75h3.348c-.055-.43-.566-1.301-1.623-1.301a1.79 1.79 0 0 0-1.725 1.301zm-8.758.75c.038 1.758 1.277 3.133 3.145 3.133 1.074 0 1.723-.477 1.961-.672v.547h1.242V1.703h-1.258v2.888c-.414-.36-1.062-.68-1.93-.68-1.91 0-3.198 1.473-3.16 3.23zm1.309-.08c0 1.119.723 1.978 1.836 1.978a1.88 1.88 0 0 0 1.94-1.904c0-1.371-1.011-1.99-1.972-1.99s-1.805.798-1.805 1.916zm76.683-.028C96.771 5.275 95.532 3.9 93.664 3.9c-1.074 0-1.723.477-1.961.672v-.547h-1.242v8.22h1.258V9.583c.414.36 1.063.68 1.93.68 1.91 0 3.198-1.473 3.16-3.23zm-1.309.08c0-1.119-.723-1.978-1.836-1.978a1.88 1.88 0 0 0-1.94 1.904c0 1.371 1.011 1.99 1.972 1.99S95.5 8.231 95.5 7.113zM106.441 10.173V4.036h1.254v.382c.361-.346 1-.485 1.47-.485 1.452 0 2.477 1.082 2.457 2.448v3.792h-1.27V6.492c0-.408-.214-1.339-1.315-1.339-.969 0-1.342.756-1.342 1.339v3.681h-1.254zm-30.383-.021V1.824h1.084l4.215 5.777V1.824h1.32v8.328h-1.094l-4.207-5.796v5.796h-1.319zM5.24 10.149H4V2.377h1.014l2.664 3.597 2.654-3.592h1.03v7.766h-1.256V4.762L7.678 8.068 5.24 4.742v5.407z" transform="translate(608, 542)" fill="#80808088" stroke="none"></path></svg>