<?xml version="1.0" encoding="utf-8" standalone="yes"?>
<!DOCTYPE svg PUBLIC "-//W3C//DTD SVG 1.1//EN" "http://www.w3.org/Graphics/SVG/1.1/DTD/svg11.dtd">
<svg width="877" height="444" viewBox="0 0 877 444" style="fill:none;stroke:none;fill-rule:evenodd;clip-rule:evenodd;stroke-linecap:round;stroke-linejoin:round;stroke-miterlimit:1.5;" version="1.1" xmlns="http://www.w3.org/2000/svg" xmlns:xlink="http://www.w3.org/1999/xlink"><style class="text-font-style fontImports" data-font-family="Roboto">@import url('https://fonts.googleapis.com/css2?family=Roboto:wght@400;700&amp;display=block');</style><g id="items" style="isolation: isolate"><g id="blend" style="mix-blend-mode: normal"><g id="g-root-sy_0_cu_m9uwuh1cwe8ll-fill" data-item-order="999912225" transform="translate(225.0220947265625, 158.897216796875)"><g id="sy_0_cu_m9uwuh1cwe8ll-fill" stroke="none" fill="#666666"><g><path d="M 87.2512 10C 44.5746 10 10 44.5851 10 87.2747C 10 129.964 44.5746 164.549 87.2512 164.549C 129.928 164.549 164.502 129.964 164.502 87.2747C 164.502 44.5851 129.928 10 87.2512 10ZM 87.2512 108.2511C 75.683 108.2511 66.2811 98.8464 66.2811 87.2747C 66.2811 75.703 75.683 66.2983 87.2512 66.2983C 98.8194 66.2983 108.2211 75.703 108.2211 87.2747C 108.2211 98.8464 98.8194 108.2511 87.2512 108.2511Z"></path></g></g></g><g id="g-root-sy_3_cu_8yeeh51cwea6i-fill" data-item-order="999912229" transform="translate(171.73046875, 236.0849609375)"><g id="sy_3_cu_8yeeh51cwea6i-fill" stroke="none" fill="#e55753"><g><path d="M 63.3349 10.0867L 31.2301 10.0867C 31.2301 13.9873 31.4465 17.8012 31.8365 21.615L 10 31.2798C 11.4298 40.2078 13.7695 48.7891 16.889 57.0236L 40.6319 54.4666C 43.7947 61.5309 47.6506 68.2052 52.1566 74.4028L 38.0755 93.689C 43.7079 100.58 50.0337 106.9076 56.9227 112.542L 76.2027 98.4563C 82.3984 102.9637 89.0709 106.8209 96.1331 109.9847L 93.5767 133.735C 101.8087 136.855 110.387 139.196 119.313 140.626L 128.975 118.783C 132.744 119.173 136.6 119.389 140.499 119.389L 140.499 87.2747C 97.8228 87.2747 63.2482 52.6896 63.2482 10L 63.3349 10.0867Z"></path></g></g></g><g id="g-root-sy_3_line_8yeeh51cwea6j-fill" data-item-order="999912234" transform="translate(422, 307.4228515625)"></g><g id="g-root-sy_4_cu_1uoof611cwe8ek-fill" data-item-order="999912237" transform="translate(302.273193359375, 236.171875)"><g id="sy_4_cu_1uoof611cwe8ek-fill" stroke="none" fill="#de58a9"><g><path d="M 119.356 10L 87.2512 10C 87.2512 52.6896 52.6766 87.2747 10 87.2747L 10 119.389C 13.8994 119.389 17.712 119.173 21.5247 118.783L 31.1867 140.626C 40.112 139.196 48.6906 136.855 56.9227 133.735L 54.3663 109.9847C 61.4285 106.8209 68.1007 102.9637 74.2964 98.4563L 93.5767 112.542C 100.4656 106.9076 106.7914 100.58 112.424 93.689L 98.3428 74.4028C 102.8487 68.2052 106.7047 61.5309 109.8675 54.4666L 133.61 57.0236C 136.73 48.789 139.07 40.2078 140.499 31.2798L 118.663 21.615C 119.053 17.8445 119.269 13.9873 119.269 10.0867L 119.356 10Z"></path></g></g></g><g id="g-root-sy_4_line_1q8ux1l1cwe96t-fill" data-item-order="999912242" transform="translate(134, 307.4228515625)"></g><g id="g-root-sy_2_cu_1hd7wsp1cwe9zi-fill" data-item-order="999912245" transform="translate(302.3599853515625, 105.63232421875)"><g id="sy_2_cu_1hd7wsp1cwe9zi-fill" stroke="none" fill="#de8431"><g><path d="M 87.1645 140.539L 119.269 140.539C 119.269 136.639 119.053 132.825 118.663 129.011L 140.499 119.346C 139.07 110.418 136.73 101.8368 133.61 93.6023L 109.8675 96.1593C 106.7047 89.095 102.8485 82.4207 98.3425 76.2231L 112.424 56.9369C 106.7912 50.0459 100.4656 43.7183 93.5767 38.0841L 74.2964 52.1695C 68.1007 47.6622 61.4285 43.805 54.3663 40.6412L 56.9224 16.891C 48.6904 13.7706 40.1117 11.4302 31.1865 10L 21.5247 31.8432C 17.7553 31.4532 13.8994 31.2365 10 31.2365L 10 63.3512C 52.6766 63.3512 87.2509 97.9363 87.2509 140.626L 87.1645 140.539Z"></path></g></g></g><g id="g-root-sy_2_line_1cxeeo91cwearr-fill" data-item-order="999912250" transform="translate(422, 163.4228515625)"></g><g id="g-root-sy_1_cu_18i7dmx1cwe8e8-fill" data-item-order="999912253" transform="translate(171.7738037109375, 105.5458984375)"><g id="sy_1_cu_18i7dmx1cwe8e8-fill" stroke="none" fill="#e0cb15"><g><path d="M 140.499 63.3512L 140.499 31.2365C 136.6 31.2365 132.787 31.4532 128.974 31.8432L 119.313 10C 110.387 11.4302 101.8087 13.7706 93.5767 16.891L 96.1331 40.6412C 89.0709 43.805 82.3984 47.6622 76.2027 52.1695L 56.9227 38.0841C 50.0338 43.7183 43.7079 50.0459 38.0755 56.9369L 52.1566 76.2231C 47.6506 82.4206 43.7947 89.095 40.6319 96.1593L 16.8888 93.6023C 13.7693 101.8368 11.4298 110.418 10 119.346L 31.8365 129.011C 31.4465 132.781 31.2298 136.639 31.2298 140.539L 63.3349 140.539C 63.3349 97.8496 97.9095 63.2645 140.586 63.2645L 140.499 63.3512Z"></path></g></g></g><g id="g-root-sy_1_line_zmkde11cwe96x-fill" data-item-order="999912258" transform="translate(134, 163.4228515625)"></g><g id="g-root-ic_refr_909tqh1cwe96z-fill" data-item-order="999998704" transform="translate(86, 145.4228515625)"><g id="ic_refr_909tqh1cwe96z-fill" stroke="none" fill="#e0cb15"><g><path d="M 18.115 27.835001C 17.912424 27.477907 17.535517 27.255192 17.125 27.25L 16.465 27.25C 16.251326 27.251564 16.047995 27.158144 15.91 26.994999C 15.764067 26.837572 15.697809 26.622234 15.73 26.41C 16.369705 21.475672 19.902443 17.404337 24.697342 16.075512C 29.492239 14.746687 34.616688 16.418829 37.705002 20.32C 38.254608 20.796753 39.067108 20.810343 39.632351 20.352236C 40.197598 19.894129 40.352585 19.096436 40 18.459999C 36.092518 13.569616 29.610283 11.536435 23.609758 13.319127C 17.609238 15.101819 13.288565 20.344433 12.684999 26.574999C 12.646953 26.953997 12.33086 27.244286 11.95 27.25L 11.125 27.25C 10.713745 27.246939 10.333594 27.468533 10.1336 27.827896C 9.933606 28.18726 9.945646 28.627117 10.165 28.975L 13.165 33.775002C 13.374575 34.102238 13.736404 34.300182 14.125 34.300182C 14.513596 34.300182 14.875425 34.102238 15.085 33.774998L 18.084999 28.974998C 18.298004 28.627666 18.309441 28.193056 18.115 27.834999ZM 10 10M 45.834999 27.025002L 42.834999 22.224998C 42.612156 21.917059 42.255116 21.734713 41.875 21.734713C 41.494888 21.734713 41.137844 21.917059 40.915001 22.225L 37.915001 27.025002C 37.695648 27.372885 37.683609 27.812742 37.883602 28.172106C 38.083595 28.531469 38.463745 28.753063 38.875 28.75L 39.535 28.75C 39.748672 28.748432 39.952003 28.841854 40.09 29.004999C 40.235931 29.162426 40.302189 29.377766 40.27 29.59C 39.630295 34.52433 36.097557 38.595665 31.302658 39.924488C 26.507761 41.253315 21.383314 39.581173 18.295 35.68C 17.74539 35.203247 16.932894 35.189655 16.367649 35.647762C 15.802403 36.105873 15.647417 36.903564 16 37.540001C 19.897697 42.425034 26.364483 44.46479 32.359623 42.700157C 38.354759 40.935528 42.685303 35.717644 43.314999 29.499998C 43.353046 29.121002 43.66914 28.830713 44.050003 28.825001L 44.875 28.825001C 45.286255 28.828064 45.666409 28.60647 45.866402 28.247105C 46.066395 27.887741 46.054352 27.447886 45.835003 27.1ZM 30.055 26.68C 28.608234 27.939262 27.53867 29.574762 26.965 31.405001C 26.835136 31.781466 27.009726 32.195309 27.369999 32.364998C 27.733503 32.511757 28.118614 32.5979 28.51 32.619999C 30.106844 32.512928 31.548613 31.626549 32.364998 30.25C 33.990639 27.036377 33.93457 23.229357 32.215 20.065001C 32.085011 19.881441 31.88335 19.761536 31.659998 19.735001C 31.436113 19.714279 31.215057 19.797174 31.059999 19.959999C 30.057606 20.936663 28.862005 21.692856 27.549999 22.18C 26.396317 22.597851 25.32876 23.223133 24.400002 24.025002C 23.342438 24.888702 22.780804 26.219776 22.900002 27.58C 23.024284 28.323204 23.400299 29.001089 23.965 29.5C 24.187778 29.705748 24.264734 30.025406 24.16 30.309999C 23.558933 31.928215 23.116848 33.601105 22.84 35.305C 22.809895 35.501961 22.859402 35.702808 22.977598 35.86322C 23.095793 36.023624 23.272959 36.130405 23.469999 36.16C 23.888161 36.213127 24.270504 35.917984 24.325001 35.5C 24.82 32.215 26.455 27.369999 29.184999 25.434999C 29.524654 25.194756 29.994757 25.275345 30.235001 25.615C 30.475245 25.954655 30.394655 26.424757 30.055 26.664999Z"></path></g></g></g><g id="g-root-ic_side_v64hc91cvxede-fill" data-item-order="999998704" transform="translate(482, 145.4228515625)"><g id="ic_side_v64hc91cvxede-fill" stroke="none" fill="#de8431"><g><path d="M 41.692001 14.9785C 40.987648 15.415001 40.770599 16.339895 41.207241 17.044159C 41.643883 17.748421 42.568821 17.965284 43.272999 17.5285L 45.243999 16.306C 45.709682 16.028553 45.989445 15.521441 45.975777 14.979545C 45.962109 14.437649 45.657131 13.945287 45.178055 13.691671C 44.698975 13.438056 44.120335 13.462649 43.664501 13.756L 41.692001 14.9785ZM 35.254002 20.6905C 34.817318 19.986353 35.034256 19.061522 35.738503 18.625L 37.709499 17.403999C 38.413651 16.967621 39.338223 17.184595 39.774742 17.888659C 40.211262 18.592722 39.994473 19.517338 39.290497 19.953999L 37.318001 21.174999C 36.614166 21.610661 35.690468 21.393831 35.254002 20.6905ZM 35.254002 34.774002C 34.81834 35.477833 35.035172 36.401535 35.738503 36.838001L 37.709499 38.060501C 38.413651 38.496876 39.338223 38.2799 39.774742 37.575836C 40.211262 36.871777 39.994473 35.947159 39.290497 35.510498L 37.318001 34.287998C 36.613777 33.852612 35.689968 34.070137 35.254002 34.774002ZM 41.2075 38.3815C 40.770817 39.085648 40.987755 40.010479 41.692001 40.446999L 43.664501 41.667999C 44.120335 41.961349 44.698975 41.985947 45.178055 41.73233C 45.657131 41.478714 45.962109 40.986351 45.975777 40.444454C 45.989445 39.902557 45.709682 39.395447 45.243999 39.118L 43.272999 37.896999C 42.568851 37.46032 41.64402 37.677254 41.2075 38.3815ZM 14.938 17.83C 16.797699 16.564075 18.995827 15.888172 21.245499 15.8905C 23.1775 15.8905 24.797501 16.257999 26.176001 16.943501C 28.4965 18.095499 30.028 20.0905 31.245998 22.442501C 32.176003 24.2365 32.956001 26.3095 33.761497 28.4485C 34.001499 29.089001 34.245998 29.737 34.496498 30.383499C 34.676552 30.846865 34.616589 31.369209 34.336216 31.779718C 34.055847 32.190231 33.591118 32.436127 33.094002 32.437L 31.609001 32.437L 31.609001 35.030502C 31.609001 37.292107 29.775606 39.1255 27.514 39.1255L 26.593 39.1255L 26.593 41.717499C 26.593 42.131714 26.257214 42.467499 25.843 42.467499L 14.14 42.467499C 13.725786 42.467499 13.39 42.131714 13.39 41.717499L 13.39 35.056C 11.00135 32.707886 9.790531 29.413002 10.090324 26.076923C 10.390119 22.740845 12.168979 19.714626 14.938001 17.83ZM 28.247499 25.327C 28.247499 26.214245 27.528244 26.933498 26.640999 26.933498C 25.753754 26.933498 25.0345 26.214245 25.0345 25.327C 25.0345 24.439754 25.753754 23.720501 26.640999 23.720501C 27.528244 23.720501 28.247499 24.439754 28.247499 25.327Z"></path></g></g></g><g id="g-root-ic_powe_hz17ex1cwfmyw-fill" data-item-order="999998704" transform="translate(86, 289.4228515625)"><g id="ic_powe_hz17ex1cwfmyw-fill" stroke="none" fill="#e55753"><g><path d="M 31.885 16.945C 32.195831 19.745874 31.590597 22.572056 30.16 24.999998C 29.419416 26.270414 28.060513 27.052639 26.59 27.055C 25.09 27.055 24.49 26.485001 21.91 24.715C 21.396503 24.362869 21.265631 23.661175 21.617668 23.147615C 21.969704 22.634056 22.671377 22.503056 23.184999 22.855L 25.525002 24.474998C 25.987719 24.710733 26.508072 24.809601 27.025002 24.760002C 28.599998 24.34 29.395 20.965 29.5 20.5C 29.965954 18.570898 29.856441 16.547543 29.184999 14.68C 28.841637 13.72401 28.367098 12.82037 27.775 11.995C 27.495268 11.60276 27.05547 11.355373 26.575001 11.32C 26.100174 11.26288 25.62657 11.435607 25.299999 11.785L 21.055 16.630001L 18.369999 16.630001C 13.99 16.615 10 20.184999 10 24.115C 10 27.655001 13.135 30.115 17.619999 30.115L 19.584999 30.115C 19.718954 30.113329 19.841764 30.189354 19.9 30.309999C 19.973866 30.424088 19.973866 30.570911 19.9 30.684999C 19.519451 31.310059 19.049471 31.876055 18.505001 32.364998L 16 32.364998C 15.171573 32.364998 14.5 33.036575 14.5 33.864998C 14.5 34.693428 15.171573 35.364998 16 35.364998L 16.209999 35.364998C 15.813157 36.04504 16.009653 36.916168 16.66 37.360001C 16.908306 37.526863 17.200836 37.615669 17.5 37.614998C 18.011494 37.646378 18.503613 37.414459 18.805 37L 20.184999 34.93C 21.614216 33.744156 22.688622 32.18705 23.289999 30.43C 23.325771 30.269163 23.470282 30.156071 23.635 30.16L 33.91 30.16C 35.321667 30.160753 36.59914 30.996702 37.164997 32.289997C 37.233574 32.394775 37.233574 32.530224 37.164997 32.634998C 37.100117 32.747387 36.979767 32.816162 36.849998 32.814999L 32.349998 32.814999C 29.036291 32.814999 26.349998 35.501289 26.349998 38.814999C 26.349998 42.128708 29.036291 44.814999 32.349998 44.814999L 34.75 44.814999C 42.639999 43.810001 46 40 46 29.02C 46 24.73 42.235001 18.34 31.885 16.945ZM 17.5 23.365C 17.5 24.193428 16.828426 24.865 16 24.865C 15.171573 24.865 14.5 24.193428 14.5 23.365C 14.5 22.536573 15.171573 21.865 16 21.865C 16.828426 21.865 17.5 22.536573 17.5 23.365ZM 34.48 41.77L 32.260002 41.77C 30.603146 41.77 29.26 40.426853 29.26 38.77C 29.26 37.113144 30.603146 35.77 32.260002 35.77L 36.760002 35.77C 36.643211 35.926655 36.518028 36.076878 36.385002 36.220001C 35.709003 36.896004 34.791 37.274002 33.834999 37.27C 33.006573 37.27 32.334999 37.941574 32.334999 38.77C 32.334999 39.598427 33.006573 40.27 33.834999 40.27C 36.462189 40.25811 39.014744 39.394978 41.110001 37.810001C 39.726311 40.180599 37.223251 41.675636 34.48 41.769997Z"></path></g></g></g><g id="g-root-ic_nest_w24p1cvw0ll-fill" data-item-order="999998704" transform="translate(482, 289.4228515625)"><g id="ic_nest_w24p1cvw0ll-fill" stroke="none" fill="#de58a9"><g><path d="M 16.690001 25.299999C 15.905988 26.246807 15.273479 27.309422 14.815 28.449999C 14.713617 28.682293 14.736415 28.950075 14.875605 29.161888C 15.014796 29.373699 15.251549 29.500885 15.505 29.5L 25.494999 29.5C 25.748451 29.500885 25.985203 29.373699 26.124395 29.161888C 26.263584 28.950075 26.286383 28.682293 26.184999 28.450001C 25.726521 27.309422 25.094011 26.246807 24.309999 25.299999C 26.84362 23.588619 27.878391 20.366577 26.815001 17.5L 29.815001 16.780001C 30.372482 16.693466 30.834269 16.301451 31.010159 15.76541C 31.186049 15.22937 31.046295 14.639972 30.648457 14.23997C 30.250618 13.839969 29.661985 13.69702 29.125 13.87L 28 14.05L 28.539999 12.895C 28.817635 12.406922 28.799419 11.804652 28.492794 11.334246C 28.186169 10.863839 27.64249 10.604082 27.083876 10.661097C 26.525261 10.71811 26.045269 11.082348 25.84 11.605L 24.565001 14.395C 23.402479 13.491547 21.972305 13.00075 20.5 13C 16.775501 13.008249 13.758249 16.025501 13.75 19.75C 13.746737 21.973637 14.848539 24.053568 16.690001 25.299999ZM 22 19.75C 21.171574 19.75 20.5 19.078426 20.5 18.25C 20.5 17.421574 21.171574 16.75 22 16.75C 22.828428 16.75 23.5 17.421574 23.5 18.25C 23.5 19.078426 22.828428 19.75 22 19.75ZM 33.744999 26.094999C 33.744999 26.184999 32.755001 27.594999 32.395 28.434999C 32.286793 28.668755 32.306118 28.941685 32.446175 29.157864C 32.586235 29.374043 32.827435 29.503223 33.084999 29.5L 40.915001 29.5C 41.172565 29.503223 41.413765 29.374043 41.553825 29.157864C 41.693882 28.941685 41.713207 28.668755 41.605 28.434999C 41.244999 27.655001 40.314999 26.184999 40.255001 26.094999C 41.517292 25.111805 42.253807 23.600012 42.25 22C 42.245552 21.657545 42.210411 21.316179 42.145 20.98L 44.724998 20.605C 45.121822 20.54941 45.479904 20.33736 45.719421 20.016127C 45.958939 19.694893 46.059975 19.291183 46 18.895C 45.940815 18.500919 45.727249 18.146585 45.406433 17.910196C 45.085621 17.673805 44.683926 17.574791 44.290001 17.635L 43.18 17.799999L 43.66 16.540001C 43.901405 16.031927 43.838264 15.431496 43.496445 14.984756C 43.154625 14.538018 42.591599 14.32007 42.038078 14.420227C 41.484558 14.520384 41.0336 14.921808 40.869999 15.46L 40 17.695C 37.67878 16.088604 34.501923 16.611906 32.818581 18.877945C 31.135237 21.143982 31.551693 24.336601 33.759998 26.094999ZM 37.75 22.75C 36.921574 22.75 36.25 22.078428 36.25 21.25C 36.25 20.421574 36.921574 19.75 37.75 19.75C 38.578426 19.75 39.25 20.421574 39.25 21.25C 39.25 22.078428 38.578426 22.75 37.75 22.75ZM 43 31.75L 13 31.75C 11.343145 31.75 10 33.093147 10 34.75C 10 40.645 17.905001 45.25 28 45.25C 38.095001 45.25 46 40.645 46 34.75C 46 33.093147 44.656857 31.75 43 31.75Z"></path></g></g></g><g id="g-root-tx__mb3v0p1cwearu-fill" data-item-order="1000000000" transform="translate(206, 19.4228515625)"><g id="tx__mb3v0p1cwearu-fill" stroke="none" fill="#484848"><g><text style="font: 20px Roboto, sans-serif; white-space: pre;" font-size="20px" font-family="Roboto, sans-serif"><tspan x="16" y="33.5" dominant-baseline="ideographic">生命过程的组成部分</tspan></text></g></g></g><g id="g-root-tx__v98urt1cvys5n-fill" data-item-order="1000000000" transform="translate(-10, 151.4228515625)"><g id="tx__v98urt1cvys5n-fill" stroke="none" fill="#46432d"><g><text style="font: 20px Roboto, sans-serif; white-space: pre;" font-size="20px" font-family="Roboto, sans-serif"><tspan x="12" y="33.5" dominant-baseline="ideographic">新陈代谢</tspan></text></g></g></g><g id="g-root-tx__1qcluq11cvytji-fill" data-item-order="1000000000" transform="translate(530, 151.4228515625)"><g id="tx__1qcluq11cvytji-fill" stroke="none" fill="#4c4034"><g><text style="font: 20px Roboto, sans-serif; white-space: pre;" font-size="20px" font-family="Roboto, sans-serif"><tspan x="12" y="33.5" dominant-baseline="ideographic">兴奋性</tspan></text></g></g></g><g id="g-root-tx__hxsceh1cvytqk-fill" data-item-order="1000000000" transform="translate(2, 295.4228515625)"><g id="tx__hxsceh1cvytqk-fill" stroke="none" fill="#543a3a"><g><text style="font: 20px Roboto, sans-serif; white-space: pre;" font-size="20px" font-family="Roboto, sans-serif"><tspan x="20" y="33.5" dominant-baseline="ideographic">适应性</tspan></text></g></g></g><g id="g-root-tx__4myb491cvys5p-fill" data-item-order="1000000000" transform="translate(530, 295.4228515625)"><g id="tx__4myb491cvys5p-fill" stroke="none" fill="#573e4d"><g><text style="font: 20px Roboto, sans-serif; white-space: pre;" font-size="20px" font-family="Roboto, sans-serif"><tspan x="12" y="33.5" dominant-baseline="ideographic">生殖</tspan></text></g></g></g><g id="g-root-sy_0_cu_m9uwuh1cwe8ll-stroke" data-item-order="999912225" transform="translate(225.0220947265625, 158.897216796875)"><g id="sy_0_cu_m9uwuh1cwe8ll-stroke" fill="none" stroke-linecap="round" stroke-linejoin="round" stroke-miterlimit="4" stroke="#ffffff" stroke-width="2"><g><path d="M 87.2512 10C 44.5746 10 10 44.5851 10 87.2747C 10 129.9643 44.5746 164.5494 87.2512 164.5494C 129.9278 164.5494 164.5024 129.9643 164.5024 87.2747C 164.5024 44.5851 129.9278 10 87.2512 10ZM 87.2512 108.2511C 75.683 108.2511 66.2811 98.8464 66.2811 87.2747C 66.2811 75.703 75.683 66.2983 87.2512 66.2983C 98.8194 66.2983 108.2211 75.703 108.2211 87.2747C 108.2211 98.8464 98.8194 108.2511 87.2512 108.2511ZM 128.064744 87.27473C 128.064744 109.82233 109.791944 128.10073 87.251244 128.10073C 64.710544 128.10073 46.437744 109.82233 46.437744 87.27473C 46.437744 64.72713 64.710544 46.44873 87.251244 46.44873C 109.791944 46.44873 128.064744 64.72713 128.064744 87.27473Z"></path></g></g></g><g id="g-root-sy_3_cu_8yeeh51cwea6i-stroke" data-item-order="999912229" transform="translate(171.73046875, 236.0849609375)"><g id="sy_3_cu_8yeeh51cwea6i-stroke" fill="none" stroke-linecap="round" stroke-linejoin="round" stroke-miterlimit="4" stroke="#ffffff" stroke-width="2"><g><path d="M 63.3349 10.0867L 31.2301 10.0867C 31.2301 13.9873 31.4465 17.8011 31.8365 21.615L 10 31.2798C 11.4298 40.2078 13.7695 48.7891 16.889 57.0236L 40.6319 54.4666C 43.7947 61.5309 47.6506 68.2052 52.1566 74.4028L 38.0755 93.689C 43.7079 100.58 50.0337 106.9076 56.9227 112.5418L 76.2027 98.4563C 82.3984 102.9637 89.0709 106.8209 96.1331 109.9847L 93.5767 133.7349C 101.8087 136.8553 110.3874 139.1957 119.3126 140.6259L 128.9746 118.7827C 132.744 119.1727 136.6 119.3894 140.4994 119.3894L 140.4994 87.2747C 97.8228 87.2747 63.2482 52.6896 63.2482 10L 63.3349 10.0867Z"></path></g></g></g><g id="g-root-sy_3_line_8yeeh51cwea6j-stroke" data-item-order="999912234" transform="translate(422, 307.4228515625)"><g id="sy_3_line_8yeeh51cwea6j-stroke" fill="none" stroke-linecap="round" stroke-linejoin="round" stroke-miterlimit="4" stroke="#484848" stroke-width="2"><g><path d="M 58 10L 12 10"></path><path d="M 18 3.5L 11.5 10L 18 16.5" stroke-dasharray="none"></path></g></g></g><g id="g-root-sy_4_cu_1uoof611cwe8ek-stroke" data-item-order="999912237" transform="translate(302.273193359375, 236.171875)"><g id="sy_4_cu_1uoof611cwe8ek-stroke" fill="none" stroke-linecap="round" stroke-linejoin="round" stroke-miterlimit="4" stroke="#ffffff" stroke-width="2"><g><path d="M 119.356 10L 87.2512 10C 87.2512 52.6896 52.6766 87.2747 10 87.2747L 10 119.3894C 13.8994 119.3894 17.712 119.1727 21.5247 118.7827L 31.1867 140.6259C 40.112 139.1957 48.6906 136.8553 56.9227 133.7349L 54.3663 109.9847C 61.4285 106.8209 68.1007 102.9637 74.2964 98.4563L 93.5767 112.5418C 100.4656 106.9076 106.7914 100.58 112.4239 93.689L 98.3428 74.4028C 102.8487 68.2052 106.7047 61.5309 109.8675 54.4666L 133.6103 57.0236C 136.7298 48.789 139.0696 40.2078 140.4994 31.2798L 118.6629 21.615C 119.0528 17.8445 119.2693 13.9873 119.2693 10.0867L 119.356 10Z"></path></g></g></g><g id="g-root-sy_4_line_1q8ux1l1cwe96t-stroke" data-item-order="999912242" transform="translate(134, 307.4228515625)"><g id="sy_4_line_1q8ux1l1cwe96t-stroke" fill="none" stroke-linecap="round" stroke-linejoin="round" stroke-miterlimit="4" stroke="#484848" stroke-width="2"><g><path d="M 10 10L 56 10"></path><path d="M 50 16.5L 56.5 10L 50 3.5" stroke-dasharray="none"></path></g></g></g><g id="g-root-sy_2_cu_1hd7wsp1cwe9zi-stroke" data-item-order="999912245" transform="translate(302.3599853515625, 105.63232421875)"><g id="sy_2_cu_1hd7wsp1cwe9zi-stroke" fill="none" stroke-linecap="round" stroke-linejoin="round" stroke-miterlimit="4" stroke="#ffffff" stroke-width="2"><g><path d="M 87.1645 140.5392L 119.2693 140.5392C 119.2693 136.6386 119.0526 132.8247 118.6626 129.0108L 140.4994 119.3461C 139.0696 110.4181 136.7298 101.8368 133.6103 93.6023L 109.8675 96.1593C 106.7047 89.095 102.8485 82.4207 98.3425 76.2231L 112.4236 56.9369C 106.7912 50.0459 100.4656 43.7183 93.5767 38.0841L 74.2964 52.1695C 68.1007 47.6622 61.4285 43.805 54.3663 40.6412L 56.9224 16.891C 48.6904 13.7706 40.1117 11.4302 31.1865 10L 21.5247 31.8432C 17.7553 31.4532 13.8994 31.2365 10 31.2365L 10 63.3512C 52.6766 63.3512 87.2509 97.9363 87.2509 140.6259L 87.1645 140.5392Z"></path></g></g></g><g id="g-root-sy_2_line_1cxeeo91cwearr-stroke" data-item-order="999912250" transform="translate(422, 163.4228515625)"><g id="sy_2_line_1cxeeo91cwearr-stroke" fill="none" stroke-linecap="round" stroke-linejoin="round" stroke-miterlimit="4" stroke="#484848" stroke-width="2"><g><path d="M 58 10L 12 10"></path><path d="M 18 3.5L 11.5 10L 18 16.5" stroke-dasharray="none"></path></g></g></g><g id="g-root-sy_1_cu_18i7dmx1cwe8e8-stroke" data-item-order="999912253" transform="translate(171.7738037109375, 105.5458984375)"><g id="sy_1_cu_18i7dmx1cwe8e8-stroke" fill="none" stroke-linecap="round" stroke-linejoin="round" stroke-miterlimit="4" stroke="#ffffff" stroke-width="2"><g><path d="M 140.4994 63.3512L 140.4994 31.2365C 136.6 31.2365 132.7871 31.4532 128.9744 31.8432L 119.3127 10C 110.3874 11.4302 101.8087 13.7706 93.5767 16.891L 96.1331 40.6412C 89.0709 43.805 82.3984 47.6622 76.2027 52.1695L 56.9227 38.0841C 50.0338 43.7183 43.7079 50.0459 38.0755 56.9369L 52.1566 76.2231C 47.6506 82.4206 43.7947 89.095 40.6319 96.1593L 16.8888 93.6023C 13.7693 101.8368 11.4298 110.4181 10 119.3461L 31.8365 129.0108C 31.4465 132.7814 31.2298 136.6386 31.2298 140.5392L 63.3349 140.5392C 63.3349 97.8496 97.9095 63.2645 140.5861 63.2645L 140.4994 63.3512Z"></path></g></g></g><g id="g-root-sy_1_line_zmkde11cwe96x-stroke" data-item-order="999912258" transform="translate(134, 163.4228515625)"><g id="sy_1_line_zmkde11cwe96x-stroke" fill="none" stroke-linecap="round" stroke-linejoin="round" stroke-miterlimit="4" stroke="#484848" stroke-width="2"><g><path d="M 10 10L 56 10"></path><path d="M 50 16.5L 56.5 10L 50 3.5" stroke-dasharray="none"></path></g></g></g><g id="g-root-ic_refr_909tqh1cwe96z-stroke" data-item-order="999998704" transform="translate(86, 145.4228515625)"></g><g id="g-root-ic_side_v64hc91cvxede-stroke" data-item-order="999998704" transform="translate(482, 145.4228515625)"></g><g id="g-root-ic_powe_hz17ex1cwfmyw-stroke" data-item-order="999998704" transform="translate(86, 289.4228515625)"></g><g id="g-root-ic_nest_w24p1cvw0ll-stroke" data-item-order="999998704" transform="translate(482, 289.4228515625)"></g><g id="g-root-tx__mb3v0p1cwearu-stroke" data-item-order="1000000000" transform="translate(206, 19.4228515625)"></g><g id="g-root-tx__v98urt1cvys5n-stroke" data-item-order="1000000000" transform="translate(-10, 151.4228515625)"></g><g id="g-root-tx__1qcluq11cvytji-stroke" data-item-order="1000000000" transform="translate(530, 151.4228515625)"></g><g id="g-root-tx__hxsceh1cvytqk-stroke" data-item-order="1000000000" transform="translate(2, 295.4228515625)"></g><g id="g-root-tx__4myb491cvys5p-stroke" data-item-order="1000000000" transform="translate(530, 295.4228515625)"></g></g></g><path id="w1hf2w8t1jk5xqk" d="M65.283 12.757a.35.35 0 0 0 .584.157l5.203-5.141-6.183 3.523.396 1.461zm-2.216-11.7a.35.35 0 0 0-.522.305v3.111l3.276-1.868-2.754-1.548zm3.728 2.105l-4.25 2.421v2.445l6.391-3.644-2.141-1.222zm4.708 3.303a.35.35 0 0 0 0-.609l-1.592-.9-7.365 4.199v1.782a.35.35 0 0 0 .523.305l8.435-4.777z M44.542 2.513c0-.433.355-.783.792-.783s.792.35.792.783-.355.783-.792.783-.792-.35-.792-.783zm59.171 0c0-.433.355-.783.792-.783s.792.35.792.783-.355.783-.792.783-.792-.35-.792-.783zm-85.951 7.636h-1.27v-.487c-.276.201-.864.609-1.881.609-1.202 0-2.274-.794-2.137-2.078.118-1.106 1.153-1.584 1.848-1.727l2.17-.345c0-.539-.29-.956-1.064-1.006s-1.21.305-1.571 1.017l-1.124-.605c1.218-2.631 5.029-1.764 5.029.414v4.207zm-1.27-2.86c.006.396-.062 1.112-.819 1.59-.587.37-1.841.299-1.903-.395-.049-.555.461-.791.906-.898l1.816-.297zm72.662 2.86h-1.27v-.487c-.276.201-.864.609-1.881.609-1.202 0-2.274-.794-2.137-2.078.118-1.106 1.153-1.584 1.848-1.727l2.17-.345c0-.539-.29-.956-1.064-1.006s-1.21.305-1.571 1.017l-1.124-.605c1.218-2.631 5.029-1.764 5.029.414v4.207zm-1.27-2.86c.006.396-.062 1.112-.82 1.59-.587.37-1.841.299-1.903-.395-.049-.555.461-.791.906-.898l1.816-.297zM99.096 10.149H97.85v-8.45h1.246v4.895l2.68-2.559h1.738l-2.633 2.535 2.715 3.578h-1.556l-2.077-2.707-.867.844v1.863zm6.053-6.114h-1.255v6.113h1.255V4.035zm-59.2 0h-1.255v6.113h1.255V4.035zm5.584 6.113V1.697h1.255v2.695c.361-.346 1-.485 1.47-.485 1.452 0 2.477 1.082 2.457 2.448v3.792h-1.27v-3.68c0-.408-.214-1.339-1.315-1.339-.968 0-1.342.756-1.342 1.339v3.681h-1.255zm-4.76-4.894V4.039h.621a.45.45 0 0 0 .45-.45v-.855h1.251v1.305h1.309v1.215h-1.309v3.109c0 .293.105.664.648.664.365 0 .531-.035.736-.07v1.137s-.361.113-.857.113c-1.398 0-1.777-1.051-1.777-1.788V5.254h-1.071zM36.528 4.039h-1.394l2.191 6.106h1.125l1.234-3.918 1.238 3.918h1.129l2.188-6.106h-1.383l-1.359 3.93-1.256-3.93h-1.124l-1.242 3.957-1.348-3.957zM26.212 7.141c-.02 1.566 1.187 3.129 3.223 3.129 1.566 0 2.383-.918 2.734-1.719L31.172 8c-.315.399-.801 1.094-1.738 1.094-1.145 0-1.825-.781-1.891-1.52h4.625c.074-.284.148-.995-.03-1.559-.336-1.064-1.221-2.102-2.839-2.102s-3.088 1.152-3.088 3.227zm1.363-.75h3.348c-.055-.43-.566-1.301-1.623-1.301a1.79 1.79 0 0 0-1.725 1.301zm-8.758.75c.038 1.758 1.277 3.133 3.145 3.133 1.074 0 1.723-.477 1.961-.672v.547h1.242V1.703h-1.258v2.888c-.414-.36-1.062-.68-1.93-.68-1.91 0-3.198 1.473-3.16 3.23zm1.309-.08c0 1.119.723 1.978 1.836 1.978a1.88 1.88 0 0 0 1.94-1.904c0-1.371-1.011-1.99-1.972-1.99s-1.805.798-1.805 1.916zm76.683-.028C96.771 5.275 95.532 3.9 93.664 3.9c-1.074 0-1.723.477-1.961.672v-.547h-1.242v8.22h1.258V9.583c.414.36 1.063.68 1.93.68 1.91 0 3.198-1.473 3.16-3.23zm-1.309.08c0-1.119-.723-1.978-1.836-1.978a1.88 1.88 0 0 0-1.94 1.904c0 1.371 1.011 1.99 1.972 1.99S95.5 8.231 95.5 7.113zM106.441 10.173V4.036h1.254v.382c.361-.346 1-.485 1.47-.485 1.452 0 2.477 1.082 2.457 2.448v3.792h-1.27V6.492c0-.408-.214-1.339-1.315-1.339-.969 0-1.342.756-1.342 1.339v3.681h-1.254zm-30.383-.021V1.824h1.084l4.215 5.777V1.824h1.32v8.328h-1.094l-4.207-5.796v5.796h-1.319zM5.24 10.149H4V2.377h1.014l2.664 3.597 2.654-3.592h1.03v7.766h-1.256V4.762L7.678 8.068 5.24 4.742v5.407z" transform="translate(740.173095703125, 409.375)" fill="#80808088" stroke="none"></path></svg>