<?xml version="1.0" encoding="utf-8" standalone="yes"?>
<!DOCTYPE svg PUBLIC "-//W3C//DTD SVG 1.1//EN" "http://www.w3.org/Graphics/SVG/1.1/DTD/svg11.dtd">
<svg width="900" height="622" viewBox="0 0 900 622" style="fill:none;stroke:none;fill-rule:evenodd;clip-rule:evenodd;stroke-linecap:round;stroke-linejoin:round;stroke-miterlimit:1.5;" version="1.1" xmlns="http://www.w3.org/2000/svg" xmlns:xlink="http://www.w3.org/1999/xlink"><style class="text-font-style fontImports" data-font-family="Roboto">@import url('https://fonts.googleapis.com/css2?family=Roboto:wght@400;700&amp;display=block');</style><g id="items" style="isolation: isolate"><g id="blend" style="mix-blend-mode: normal"><g id="g-root-sy_4_cu_zofsnt1dqd0ct-fill" data-item-order="-218730" transform="translate(170, 431.251953125)"></g><g id="g-root-sy_3_cu_v8majd1dqd152-fill" data-item-order="-218726" transform="translate(230, 440.37890625)"></g><g id="g-root-sy_2_cu_hx5s611dqd2pz-fill" data-item-order="-218722" transform="translate(278, 448.58642578125)"></g><g id="g-root-sy_1_cu_4mbqvt1dqd154-fill" data-item-order="-218718" transform="translate(314, 457.958984375)"></g><g id="g-root-sy_0_cu_6i8rd1dqd1xd-fill" data-item-order="-218714" transform="translate(338, 253.56201171875)"></g><g id="g-root-sy_-1_vector_1qbzahl1dqd2iy-fill" data-item-order="-218709" transform="translate(602, 302)"></g><g id="g-root-sy_-1_vector_1_1lws9g91dqd05f-fill" data-item-order="-218705" transform="translate(242.00021362304688, 302)"></g><g id="g-root-sy_-1_vector_2_1d1597d1dqd0y4-fill" data-item-order="-218701" transform="translate(554, 158)"></g><g id="g-root-sy_-1_vector_3_1d1597d1dqd0y5-fill" data-item-order="-218697" transform="translate(243.00021362304688, 158)"></g><g id="g-root-tx__dj7pax1dqd2io-fill" data-item-order="0" transform="translate(710, 194)"><g id="tx__dj7pax1dqd2io-fill" stroke="none" fill="#484848"><g><text style="font: 15px Roboto, sans-serif; white-space: pre;" font-size="15px" font-family="Roboto, sans-serif"><tspan x="12" y="27.5" dominant-baseline="ideographic">细胞数量减少导致器官</tspan><tspan x="12" y="45.5" dominant-baseline="ideographic">功能下降</tspan></text></g></g></g><g id="g-root-ic_blin_1q5qjmh1dqef47-fill" data-item-order="0" transform="translate(182, 278)"></g><g id="g-root-ic_sad_hwje8p1dpw7wk-fill" data-item-order="0" transform="translate(650, 278)"></g><g id="g-root-tx__meupjt1dqd0y7-fill" data-item-order="0" transform="translate(14, 194)"><g id="tx__meupjt1dqd0y7-fill" stroke="none" fill="#484848"><g><text style="font: 15px Roboto, sans-serif; white-space: pre;" font-size="15px" font-family="Roboto, sans-serif"><tspan x="14" y="27.5" dominant-baseline="ideographic">涉及水分减少和脂肪增</tspan><tspan x="44" y="45.5" dominant-baseline="ideographic">加的身体成分变化</tspan></text></g></g></g><g id="g-root-tx__vbqnyx1dqd2bo-fill" data-item-order="0" transform="translate(710, 158)"><g id="tx__vbqnyx1dqd2bo-fill" stroke="none" fill="#e0cb15"><g><text style="font: bold 20px Roboto, sans-serif; white-space: pre;" font-weight="bold" font-size="20px" font-family="Roboto, sans-serif"><tspan x="12" y="33.5" dominant-baseline="ideographic">细胞减少</tspan></text></g></g></g><g id="g-root-tx__4pg4bd1dqd2bq-fill" data-item-order="0" transform="translate(710, 302)"><g id="tx__4pg4bd1dqd2bq-fill" stroke="none" fill="#e55753"><g><text style="font: bold 20px Roboto, sans-serif; white-space: pre;" font-weight="bold" font-size="20px" font-family="Roboto, sans-serif"><tspan x="12" y="33.5" dominant-baseline="ideographic">适应能力降低</tspan></text></g></g></g><g id="g-root-tx__8do0p1dqd0xt-fill" data-item-order="0" transform="translate(14, 338)"><g id="tx__8do0p1dqd0xt-fill" stroke="none" fill="#484848"><g><text style="font: 15px Roboto, sans-serif; white-space: pre;" font-size="15px" font-family="Roboto, sans-serif"><tspan x="14" y="27.5" dominant-baseline="ideographic">感官和生理功能的普遍</tspan><tspan x="134" y="45.5" dominant-baseline="ideographic">下降</tspan></text></g></g></g><g id="g-root-tx__1ly17mh1dqd2bm-fill" data-item-order="0" transform="translate(710, 338)"><g id="tx__1ly17mh1dqd2bm-fill" stroke="none" fill="#484848"><g><text style="font: 15px Roboto, sans-serif; white-space: pre;" font-size="15px" font-family="Roboto, sans-serif"><tspan x="12" y="27.5" dominant-baseline="ideographic">对环境变化的适应能力</tspan><tspan x="12" y="45.5" dominant-baseline="ideographic">减弱</tspan></text></g></g></g><g id="g-root-tx__18n76c91dqd0qr-fill" data-item-order="0" transform="translate(86, 158)"><g id="tx__18n76c91dqd0qr-fill" stroke="none" fill="#3cc583"><g><text style="font: bold 20px Roboto, sans-serif; white-space: pre;" font-weight="bold" font-size="20px" font-family="Roboto, sans-serif"><tspan x="12" y="33.5" dominant-baseline="ideographic">结构变化</tspan></text></g></g></g><g id="g-root-ic_patc_hznro91dpxlot-fill" data-item-order="0" transform="translate(650, 134)"></g><g id="g-root-ic_wate_1uo21951dput4z-fill" data-item-order="0" transform="translate(182, 134)"></g><g id="g-root-tx__zpoqu11dqd2j2-fill" data-item-order="0" transform="translate(368, 38)"><g id="tx__zpoqu11dqd2j2-fill" stroke="none" fill="#484848"><g><text style="font: bold 20px Roboto, sans-serif; white-space: pre;" font-weight="bold" font-size="20px" font-family="Roboto, sans-serif"><tspan x="12" y="33.5" dominant-baseline="ideographic">衰老过程的结果</tspan></text></g></g></g><g id="g-root-tx__i0wmop1dqd0qt-fill" data-item-order="0" transform="translate(86, 302)"><g id="tx__i0wmop1dqd0qt-fill" stroke="none" fill="#de8431"><g><text style="font: bold 20px Roboto, sans-serif; white-space: pre;" font-weight="bold" font-size="20px" font-family="Roboto, sans-serif"><tspan x="12" y="33.5" dominant-baseline="ideographic">功能下降</tspan></text></g></g></g><g id="g-root-sy_4_cu_zofsnt1dqd0ct-stroke" data-item-order="-218730" transform="translate(170, 431.251953125)"><g id="sy_4_cu_zofsnt1dqd0ct-stroke" fill="none" stroke-linecap="round" stroke-linejoin="round" stroke-miterlimit="4" stroke="#e55753" stroke-width="2"><g><path d="M 259.3677 10.005C 119.8903 12.5813 10 41.0613 10 75.8152C 10 112.266 130.8831 141.8152 280 141.8152C 429.1169 141.8152 550 112.266 550 75.8152C 550 41.0386 439.966 12.5441 300.3588 10C 301.3236 12.9821 302.3193 16.0441 303.3777 19.1276C 408.3552 21.9514 490 43.5678 490 69.8152C 490 97.9817 395.9798 120.8152 280 120.8152C 164.0202 120.8152 70 97.9817 70 69.8152C 70 43.5879 151.5195 21.9846 256.3805 19.1342C 257.4265 16.0505 258.4117 12.988 259.3677 10.005Z"></path></g></g></g><g id="g-root-sy_3_cu_v8majd1dqd152-stroke" data-item-order="-218726" transform="translate(230, 440.37890625)"><g id="sy_3_cu_v8majd1dqd152-stroke" fill="none" stroke-linecap="round" stroke-linejoin="round" stroke-miterlimit="4" stroke="#de8431" stroke-width="2"><g><path d="M 196.3805 10.0065C 91.5195 12.857 10 34.4603 10 60.6875C 10 88.8541 104.0202 111.6875 220 111.6875C 335.9798 111.6875 430 88.8541 430 60.6875C 430 34.4401 348.3552 12.8238 243.3777 10C 244.3157 12.7324 245.3029 15.4819 246.3617 18.2079C 323.2938 21.2777 382 37.561 382 57.1875C 382 79.0028 309.4701 96.6875 220 96.6875C 130.5299 96.6875 58 79.0028 58 57.1875C 58 37.5784 116.6021 21.3066 193.4337 18.2161C 194.4783 15.49 195.4533 12.7399 196.3805 10.0065Z"></path></g></g></g><g id="g-root-sy_2_cu_hx5s611dqd2pz-stroke" data-item-order="-218722" transform="translate(278, 448.58642578125)"><g id="sy_2_cu_hx5s611dqd2pz-stroke" fill="none" stroke-linecap="round" stroke-linejoin="round" stroke-miterlimit="4" stroke="#e0cb15" stroke-width="2"><g><path d="M 145.4337 10.0082C 68.6021 13.098701 10 29.3705 10 48.979601C 10 70.7949 82.5299 88.4796 172 88.4796C 261.4701 88.4796 334 70.7949 334 48.979601C 334 29.3531 275.2938 13.0698 198.3617 10C 199.5958 13.1774 200.9272 16.323 202.391 19.372701C 257.2975 22.664301 298 34.671401 298 48.979601C 298 65.8243 241.5879 79.479601 172 79.479601C 102.4121 79.479601 46 65.8243 46 48.979601C 46 34.684301 86.6291 22.686 141.4603 19.381701C 142.9028 16.332601 144.2157 13.1866 145.4337 10.0082Z"></path></g></g></g><g id="g-root-sy_1_cu_4mbqvt1dqd154-stroke" data-item-order="-218718" transform="translate(314, 457.958984375)"><g id="sy_1_cu_4mbqvt1dqd154-stroke" fill="none" stroke-linecap="round" stroke-linejoin="round" stroke-miterlimit="4" stroke="#3cc583" stroke-width="2"><g><path d="M 105.4603 10.0089C 50.6291 13.3132 10 25.3115 10 39.6069C 10 56.4516 66.4121 70.1069 136 70.1069C 205.5879 70.1069 262 56.4516 262 39.6069C 262 25.2986 221.2975 13.2915 166.391 10C 167.5421 12.3981 168.7751 14.737 170.1072 16.9854C 209.6677 20.2872 237.9999 29.1705 237.9999 39.6108C 237.9999 52.8656 192.3327 63.6108 135.9995 63.6108C 79.6662 63.6108 33.999 52.8656 33.999 39.6108C 33.999 29.1787 62.2868 20.3012 101.7986 16.9932C 103.1108 14.7459 104.3257 12.4074 105.4603 10.0089Z"></path></g></g></g><g id="g-root-sy_0_cu_6i8rd1dqd1xd-stroke" data-item-order="-218714" transform="translate(338, 253.56201171875)"><g id="sy_0_cu_6i8rd1dqd1xd-stroke" fill="none" stroke-linecap="round" stroke-linejoin="round" stroke-miterlimit="4" stroke="#de8431" stroke-width="2"><g><path d="M 91.5808 187.032517C 97.1439 169.669617 101.7895 155.170517 111.8222 155.170517C 121.8442 155.170517 126.4906 169.539217 132.0744 186.806917C 135.7476 198.166117 139.8265 210.779817 146.1082 221.383017C 185.6687 224.684817 214.0009 233.568117 214.0009 244.008417C 214.0009 257.263217 168.3337 268.008417 112.0004 268.008417C 55.6672 268.008417 10 257.263217 10 244.008417C 10 233.576317 38.2878 224.698817 77.7996 221.390817C 83.9442 210.866717 87.9571 198.342117 91.5808 187.032517ZM 50.209961 244.009008C 62.828761 240.931408 71.497761 232.100308 77.799661 221.391208M 146.108161 221.383408C 152.445561 231.976408 161.184161 240.806208 173.792561 244.009008"></path></g></g><g id="sy_0_cu_6i8rd1dqd1xd-stroke" fill="none" stroke-linecap="round" stroke-linejoin="round" stroke-miterlimit="4" stroke="#de8431" stroke-width="2"><g><path d="M 82.000702 40.008007C 81.996081 56.579619 95.428732 70.016017 112.000346 70.016017C 128.57196 70.016017 142.004611 56.579619 141.99999 40.008006C 142.004611 23.436393 128.57196 9.999995 112.000346 9.999995C 95.428732 9.999995 81.996081 23.436393 82.000702 40.008006M 94 112.438168C 94.000001 122.379232 102.058826 130.438057 111.99989 130.438057C 121.940954 130.438057 129.999779 122.379232 129.999779 112.438168C 129.999779 102.497104 121.940954 94.438279 111.99989 94.438279C 102.058826 94.438279 94.000001 102.497104 94.000001 112.438168"></path></g></g></g><g id="g-root-sy_-1_vector_1qbzahl1dqd2iy-stroke" data-item-order="-218709" transform="translate(602, 302)"><g id="sy_-1_vector_1qbzahl1dqd2iy-stroke" fill="none" stroke-linecap="round" stroke-linejoin="round" stroke-miterlimit="4" stroke="#484848" stroke-width="2"><style>.fillAsStrokeColor-mk-1hfp0pl1fy6z2i { fill:#484848; }</style><g><path d="M 46 10L 34 10C 20.7452 10 10 20.7786 10 34.0748L 10 152"></path><path d="M 7 152C 7.000018 153.656867 8.343164 155.000013 10.000018 155.000013C 11.656872 155.000013 13.000018 153.656867 13.000018 152.000013C 13.000018 150.343159 11.656872 149.000013 10.000018 149.000013C 8.343164 149.000013 7.000018 150.343159 7.000018 152.000013Z" stroke-dasharray="none" class="fillAsStrokeColor-mk-1hfp0pl1fy6z2i"></path></g></g></g><g id="g-root-sy_-1_vector_1_1lws9g91dqd05f-stroke" data-item-order="-218705" transform="translate(242.00021362304688, 302)"><g id="sy_-1_vector_1_1lws9g91dqd05f-stroke" fill="none" stroke-linecap="round" stroke-linejoin="round" stroke-miterlimit="4" stroke="#484848" stroke-width="2"><style>.fillAsStrokeColor-mk-1czvil51fy6zur { fill:#484848; }</style><g><path d="M 10 10L 22 10C 35.2548 10 46 20.8093 46 34.1433L 46 167"></path><path d="M 42.999786 167C 42.999795 168.656868 44.34294 170.000013 45.999795 170.000013C 47.656649 170.000013 48.999795 168.656868 48.999795 167.000013C 48.999795 165.343159 47.656649 164.000013 45.999795 164.000013C 44.34294 164.000013 42.999795 165.343159 42.999795 167.000013Z" stroke-dasharray="none" class="fillAsStrokeColor-mk-1czvil51fy6zur"></path></g></g></g><g id="g-root-sy_-1_vector_2_1d1597d1dqd0y4-stroke" data-item-order="-218701" transform="translate(554, 158)"><g id="sy_-1_vector_2_1d1597d1dqd0y4-stroke" fill="none" stroke-linecap="round" stroke-linejoin="round" stroke-miterlimit="4" stroke="#484848" stroke-width="2"><style>.fillAsStrokeColor-mk-1448ic91fy70ng { fill:#484848; }</style><g><path d="M 94 10L 46.3025 10C 26.2532 10 10 26.1178 10 46L 10 312"></path><path d="M 7 312C 7.000016 313.656868 8.343162 315.000013 10.000016 315.000013C 11.656871 315.000013 13.000016 313.656868 13.000016 312.000013C 13.000016 310.343159 11.656871 309.000013 10.000016 309.000013C 8.343162 309.000013 7.000016 310.343159 7.000016 312.000013Z" stroke-dasharray="none" class="fillAsStrokeColor-mk-1448ic91fy70ng"></path></g></g></g><g id="g-root-sy_-1_vector_3_1d1597d1dqd0y5-stroke" data-item-order="-218697" transform="translate(243.00021362304688, 158)"><g id="sy_-1_vector_3_1d1597d1dqd0y5-stroke" fill="none" stroke-linecap="round" stroke-linejoin="round" stroke-miterlimit="4" stroke="#484848" stroke-width="2"><style>.fillAsStrokeColor-mk-zp1hax1fy6y9x { fill:#484848; }</style><g><path d="M 10 10L 57 10C 76.8822 10 93 26.1177 93 46L 93 327"></path><path d="M 89.999786 327C 89.999796 328.656868 91.342942 330.000014 92.999796 330.000014C 94.65665 330.000014 95.999796 328.656868 95.999796 327.000014C 95.999796 325.343159 94.65665 324.000014 92.999796 324.000014C 91.342942 324.000014 89.999796 325.343159 89.999796 327.000014Z" stroke-dasharray="none" class="fillAsStrokeColor-mk-zp1hax1fy6y9x"></path></g></g></g><g id="g-root-tx__dj7pax1dqd2io-stroke" data-item-order="0" transform="translate(710, 194)"></g><g id="g-root-ic_blin_1q5qjmh1dqef47-stroke" data-item-order="0" transform="translate(182, 278)"><g id="ic_blin_1q5qjmh1dqef47-stroke" fill="none" stroke-linecap="round" stroke-linejoin="round" stroke-miterlimit="4" stroke="#de8431" stroke-width="2"><g><path d="M 38.031998 33.279999L 28.132 24.279999C 26.504793 22.787701 24.087744 22.548929 22.200001 23.694L 16.383999 27.18C 13.678663 28.812208 12.021811 31.73843 12.014 34.898003L 12.014 37.498001C 12.014 39.154854 13.357145 40.498001 15.014 40.498001C 16.670855 40.498001 18.014 39.154854 18.014 37.498001L 18.014 34.898003C 18.016912 33.844711 18.568752 32.869141 19.469999 32.323997L 22.014 30.799999L 22.014 38.704002L 14.414 52.012001C 13.811692 52.944622 13.773679 54.133629 14.315186 55.102818C 14.856692 56.072006 15.889175 56.662907 16.999121 56.638855C 18.109066 56.614803 19.114983 55.979736 19.614 54.988003L 25.014 45.546001L 30.414 54.987999C 30.913017 55.979736 31.918936 56.614803 33.028881 56.638855C 34.138824 56.662907 35.17131 56.072006 35.712814 55.102818C 36.254322 54.133629 36.216309 52.944622 35.613998 52.012001L 28.014 38.704002L 28.014 32.281998L 34 37.722C 35.226624 38.83651 37.124489 38.745625 38.238998 37.519001C 39.353512 36.292374 39.262627 34.394512 38.036003 33.279999ZM 21.014 15.5C 21.014 17.709139 22.804861 19.5 25.014 19.5C 27.223139 19.5 29.014 17.709139 29.014 15.5C 29.014 13.290861 27.223139 11.5 25.014 11.5C 22.804861 11.5 21.014 13.290861 21.014 15.5ZM 38.132 37.625999L 55.986 56.473999"></path></g></g></g><g id="g-root-ic_sad_hwje8p1dpw7wk-stroke" data-item-order="0" transform="translate(650, 278)"><g id="ic_sad_hwje8p1dpw7wk-stroke" fill="none" stroke-linecap="round" stroke-linejoin="round" stroke-miterlimit="4" stroke="#e55753" stroke-width="2"><g><path d="M 28.5 39.540001C 28.238752 39.539162 28.020899 39.73959 28 40M 29 40C 29 39.723858 28.776142 39.5 28.5 39.5M 28.5 40.540001C 28.639839 40.540451 28.773476 40.482315 28.868483 40.379707C 28.963491 40.2771 29.011189 40.139389 29 40M 28 40C 28 40.276142 28.223858 40.5 28.5 40.5M 39.5 39.540001C 39.761246 39.539162 39.979103 39.73959 40 40M 39 40C 39 39.723858 39.223858 39.5 39.5 39.5M 39.5 40.540001C 39.360161 40.540451 39.226524 40.482315 39.131516 40.379707C 39.036507 40.2771 38.988811 40.139389 39 40M 40 40C 40 40.276142 39.776142 40.5 39.5 40.5M 49 32.540001L 47.299999 52.880001C 47.122967 54.955372 45.382896 56.547539 43.299999 56.540001L 24.68 56.540001C 22.597103 56.547539 20.857033 54.955372 20.68 52.880001L 19 32.540001M 17 32.540001L 51 32.540001M 40.260002 50.540001C 39.129799 48.102127 36.687111 46.542137 34 46.542137C 31.312887 46.542137 28.870197 48.102127 27.74 50.540001M 34 32.540001L 44 14.24C 44.177704 13.912954 44.528435 13.718102 44.899998 13.74C 45.264988 13.747713 45.592499 13.966055 45.739998 14.3C 47.532997 18.293442 47.185432 22.922653 44.816231 26.603594C 42.447029 30.284534 38.377434 32.518097 34 32.540001ZM 34 32.540001L 24 14.24C 23.822296 13.912954 23.471561 13.718102 23.099998 13.74C 22.735012 13.747713 22.407499 13.966055 22.26 14.3C 20.466999 18.293442 20.814568 22.922653 23.183769 26.603594C 25.552969 30.284534 29.622562 32.518097 34 32.540001ZM 28 21.700001C 29.496925 18.35655 31.214029 15.1161 33.139999 12C 33.327324 11.706264 33.651615 11.528452 34 11.528452C 34.348385 11.528452 34.672676 11.706264 34.860001 12C 36.785973 15.1161 38.503075 18.35655 40 21.700001"></path></g></g></g><g id="g-root-tx__meupjt1dqd0y7-stroke" data-item-order="0" transform="translate(14, 194)"></g><g id="g-root-tx__vbqnyx1dqd2bo-stroke" data-item-order="0" transform="translate(710, 158)"></g><g id="g-root-tx__4pg4bd1dqd2bq-stroke" data-item-order="0" transform="translate(710, 302)"></g><g id="g-root-tx__8do0p1dqd0xt-stroke" data-item-order="0" transform="translate(14, 338)"></g><g id="g-root-tx__1ly17mh1dqd2bm-stroke" data-item-order="0" transform="translate(710, 338)"></g><g id="g-root-tx__18n76c91dqd0qr-stroke" data-item-order="0" transform="translate(86, 158)"></g><g id="g-root-ic_patc_hznro91dpxlot-stroke" data-item-order="0" transform="translate(650, 134)"><g id="ic_patc_hznro91dpxlot-stroke" fill="none" stroke-linecap="round" stroke-linejoin="round" stroke-miterlimit="4" stroke="#e0cb15" stroke-width="2"><g><path d="M 43 25C 44.375065 26.937426 46.625019 28.062405 49 28M 23 32.5C 22.723858 32.5 22.5 32.276142 22.5 32C 22.5 31.723858 22.723858 31.5 23 31.5C 23.276142 31.5 23.5 31.723858 23.5 32C 23.5 32.276142 23.276142 32.5 23 32.5M 45 32.5C 45.276142 32.5 45.5 32.276142 45.5 32C 45.5 31.723858 45.276142 31.5 45 31.5C 44.723858 31.5 44.5 31.723858 44.5 32C 44.5 32.276142 44.723858 32.5 45 32.5M 25 48C 25 43.029438 29.029438 39 34 39C 38.970562 39 43 43.029438 43 48M 18.414 12.757999L 12.757999 18.414C 10.44709 20.762283 10.461998 24.534668 12.791395 26.864614C 15.120792 29.194559 18.893173 29.210356 21.242001 26.9L 26.9 21.242001C 28.436153 19.730297 29.043503 17.510828 28.491093 15.427597C 27.938684 13.344364 26.311392 11.717455 24.228029 11.165537C 22.144667 10.613618 19.925343 11.221491 18.414001 12.758ZM 16.291359 20.535107L 20.533997 16.292465L 23.362423 19.120895L 19.119785 23.363533ZM 11.2 31C 9.921431 40.758762 14.999381 50.248253 23.827908 54.598576C 32.656433 58.948898 43.275124 57.194046 50.234585 50.234585C 57.194046 43.275124 58.948898 32.656433 54.598576 23.827908C 50.248253 14.999381 40.758762 9.921431 30.999998 11.2"></path></g></g></g><g id="g-root-ic_wate_1uo21951dput4z-stroke" data-item-order="0" transform="translate(182, 134)"><g id="ic_wate_1uo21951dput4z-stroke" fill="none" stroke-linecap="round" stroke-linejoin="round" stroke-miterlimit="4" stroke="#3cc583" stroke-width="2"><g><path d="M 20.560001 46.966C 20.560001 53.509998 24.858 56.486 30.16 56.486C 35.461998 56.486 39.760002 53.509998 39.760002 46.966C 39.760002 40.419998 30.16 30.304001 30.16 30.304001C 30.16 30.304001 20.560001 40.419998 20.560001 46.964001ZM 39.760002 47.666C 45.416 47.666 50 44.492001 50 37.510002C 50 30.530001 39.760002 19.737999 39.760002 19.737999C 39.760002 19.737999 34.172001 25.630001 31.256001 31.530001M 23.004 39.844002C 19.993999 38.234001 18 35.143997 18 30.396C 18 22.98 28.879999 11.516 28.879999 11.516C 28.879999 11.516 33.975998 16.883999 37.192001 22.652"></path></g></g></g><g id="g-root-tx__zpoqu11dqd2j2-stroke" data-item-order="0" transform="translate(368, 38)"></g><g id="g-root-tx__i0wmop1dqd0qt-stroke" data-item-order="0" transform="translate(86, 302)"></g></g></g><path id="w4pf8l61g80zcx" d="M65.283 12.757a.35.35 0 0 0 .584.157l5.203-5.141-6.183 3.523.396 1.461zm-2.216-11.7a.35.35 0 0 0-.522.305v3.111l3.276-1.868-2.754-1.548zm3.728 2.105l-4.25 2.421v2.445l6.391-3.644-2.141-1.222zm4.708 3.303a.35.35 0 0 0 0-.609l-1.592-.9-7.365 4.199v1.782a.35.35 0 0 0 .523.305l8.435-4.777z M44.542 2.513c0-.433.355-.783.792-.783s.792.35.792.783-.355.783-.792.783-.792-.35-.792-.783zm59.171 0c0-.433.355-.783.792-.783s.792.35.792.783-.355.783-.792.783-.792-.35-.792-.783zm-85.951 7.636h-1.27v-.487c-.276.201-.864.609-1.881.609-1.202 0-2.274-.794-2.137-2.078.118-1.106 1.153-1.584 1.848-1.727l2.17-.345c0-.539-.29-.956-1.064-1.006s-1.21.305-1.571 1.017l-1.124-.605c1.218-2.631 5.029-1.764 5.029.414v4.207zm-1.27-2.86c.006.396-.062 1.112-.819 1.59-.587.37-1.841.299-1.903-.395-.049-.555.461-.791.906-.898l1.816-.297zm72.662 2.86h-1.27v-.487c-.276.201-.864.609-1.881.609-1.202 0-2.274-.794-2.137-2.078.118-1.106 1.153-1.584 1.848-1.727l2.17-.345c0-.539-.29-.956-1.064-1.006s-1.21.305-1.571 1.017l-1.124-.605c1.218-2.631 5.029-1.764 5.029.414v4.207zm-1.27-2.86c.006.396-.062 1.112-.82 1.59-.587.37-1.841.299-1.903-.395-.049-.555.461-.791.906-.898l1.816-.297zM99.096 10.149H97.85v-8.45h1.246v4.895l2.68-2.559h1.738l-2.633 2.535 2.715 3.578h-1.556l-2.077-2.707-.867.844v1.863zm6.053-6.114h-1.255v6.113h1.255V4.035zm-59.2 0h-1.255v6.113h1.255V4.035zm5.584 6.113V1.697h1.255v2.695c.361-.346 1-.485 1.47-.485 1.452 0 2.477 1.082 2.457 2.448v3.792h-1.27v-3.68c0-.408-.214-1.339-1.315-1.339-.968 0-1.342.756-1.342 1.339v3.681h-1.255zm-4.76-4.894V4.039h.621a.45.45 0 0 0 .45-.45v-.855h1.251v1.305h1.309v1.215h-1.309v3.109c0 .293.105.664.648.664.365 0 .531-.035.736-.07v1.137s-.361.113-.857.113c-1.398 0-1.777-1.051-1.777-1.788V5.254h-1.071zM36.528 4.039h-1.394l2.191 6.106h1.125l1.234-3.918 1.238 3.918h1.129l2.188-6.106h-1.383l-1.359 3.93-1.256-3.93h-1.124l-1.242 3.957-1.348-3.957zM26.212 7.141c-.02 1.566 1.187 3.129 3.223 3.129 1.566 0 2.383-.918 2.734-1.719L31.172 8c-.315.399-.801 1.094-1.738 1.094-1.145 0-1.825-.781-1.891-1.52h4.625c.074-.284.148-.995-.03-1.559-.336-1.064-1.221-2.102-2.839-2.102s-3.088 1.152-3.088 3.227zm1.363-.75h3.348c-.055-.43-.566-1.301-1.623-1.301a1.79 1.79 0 0 0-1.725 1.301zm-8.758.75c.038 1.758 1.277 3.133 3.145 3.133 1.074 0 1.723-.477 1.961-.672v.547h1.242V1.703h-1.258v2.888c-.414-.36-1.062-.68-1.93-.68-1.91 0-3.198 1.473-3.16 3.23zm1.309-.08c0 1.119.723 1.978 1.836 1.978a1.88 1.88 0 0 0 1.94-1.904c0-1.371-1.011-1.99-1.972-1.99s-1.805.798-1.805 1.916zm76.683-.028C96.771 5.275 95.532 3.9 93.664 3.9c-1.074 0-1.723.477-1.961.672v-.547h-1.242v8.22h1.258V9.583c.414.36 1.063.68 1.93.68 1.91 0 3.198-1.473 3.16-3.23zm-1.309.08c0-1.119-.723-1.978-1.836-1.978a1.88 1.88 0 0 0-1.94 1.904c0 1.371 1.011 1.99 1.972 1.99S95.5 8.231 95.5 7.113zM106.441 10.173V4.036h1.254v.382c.361-.346 1-.485 1.47-.485 1.452 0 2.477 1.082 2.457 2.448v3.792h-1.27V6.492c0-.408-.214-1.339-1.315-1.339-.969 0-1.342.756-1.342 1.339v3.681h-1.254zm-30.383-.021V1.824h1.084l4.215 5.777V1.824h1.32v8.328h-1.094l-4.207-5.796v5.796h-1.319zM5.24 10.149H4V2.377h1.014l2.664 3.597 2.654-3.592h1.03v7.766h-1.256V4.762L7.678 8.068 5.24 4.742v5.407z" transform="translate(764, 587.0673828125)" fill="#80808088" stroke="none"></path></svg>