<?xml version="1.0" encoding="utf-8" standalone="yes"?>
<!DOCTYPE svg PUBLIC "-//W3C//DTD SVG 1.1//EN" "http://www.w3.org/Graphics/SVG/1.1/DTD/svg11.dtd">
<svg width="792" height="388" viewBox="0 0 792 388" style="fill:none;stroke:none;fill-rule:evenodd;clip-rule:evenodd;stroke-linecap:round;stroke-linejoin:round;stroke-miterlimit:1.5;" version="1.1" xmlns="http://www.w3.org/2000/svg" xmlns:xlink="http://www.w3.org/1999/xlink"><style class="text-font-style fontImports" data-font-family="Roboto">@import url('https://fonts.googleapis.com/css2?family=Roboto:wght@400;700&amp;display=block');</style><g id="items" style="isolation: isolate"><g id="blend" style="mix-blend-mode: normal"><g id="g-root-sy_3_line_1ly05jg1l84umm-fill" data-item-order="-38843" transform="translate(302, 163.99996948242188)"></g><g id="g-root-sy_1_line_1hi6nf01l84vev-fill" data-item-order="-38837" transform="translate(301.9999084472656, 55.999969482421875)"></g><g id="g-root-sy_2_line_1d2d5ak1l84w74-fill" data-item-order="-38831" transform="translate(301.9997863769531, 163.99996948242188)"></g><g id="g-root-sy_0_line_146q51o1l84wzt-fill" data-item-order="-38827" transform="translate(230, 163.99996948242188)"></g><g id="g-root-ic_1_1463r4c1l7mo08-fill" data-item-order="-3600" transform="translate(86, 91.99996948242188)"><g id="ic_1_1463r4c1l7mo08-fill" stroke="none" fill="#969696"><g><path d="M 15.282499 15.997499C 16.144754 15.422434 16.377567 14.257255 15.8025 13.395C 15.227434 12.532745 14.062255 12.299933 13.2 12.875C 10.66 14.57 9.825 17.1625 10.025 19.592499C 10.251975 21.9193 11.271358 24.097515 12.9125 25.762499C 13.7325 26.58 14.2375 27.932499 14.2375 29.4375C 14.2375 30.9375 13.7325 32.2925 12.9125 33.112499C 12.202264 33.848545 12.212973 35.017998 12.936569 35.74091C 13.660165 36.463821 14.829626 36.473431 15.565001 35.762501C 17.247499 34.080002 17.99 31.682501 17.99 29.4375C 17.99 27.1875 17.247499 24.7925 15.565001 23.112499C 14.551324 22.073606 13.917219 20.723494 13.765 19.280001C 13.655 17.959999 14.07 16.8025 15.28 15.997499ZM 25.91 15.997499C 26.475536 15.629392 26.799652 14.985791 26.758692 14.31225C 26.717731 13.638711 26.31801 13.039129 25.712034 12.742266C 25.10606 12.445402 24.387306 12.497048 23.83 12.877501C 21.289999 14.57 20.455 17.1625 20.657499 19.592499C 20.884474 21.9193 21.903858 24.097515 23.545 25.762499C 24.365 26.58 24.869999 27.932499 24.869999 29.4375C 24.869999 30.9375 24.365 32.2925 23.545 33.112499C 22.856602 33.851276 22.876915 35.002525 23.590944 35.716557C 24.304976 36.430588 25.456226 36.450897 26.195 35.762501C 27.877501 34.080002 28.619999 31.682501 28.619999 29.4375C 28.619999 27.1875 27.877501 24.7925 26.195 23.112499C 25.181324 22.073606 24.547218 20.723494 24.395 19.280001C 24.285 17.959999 24.702499 16.8025 25.91 15.997499ZM 67.802498 13.3975C 68.376816 14.259078 68.144012 15.423086 67.282501 15.9975C 66.072502 16.8025 65.657501 17.959999 65.767502 19.279999C 65.8825 20.685001 66.610001 22.155001 67.567505 23.110001C 69.247498 24.7925 69.9925 27.190001 69.9925 29.435001C 69.9925 31.684999 69.25 34.080002 67.567505 35.759998C 67.100075 36.261631 66.396111 36.468121 65.731781 36.298462C 65.067451 36.128803 64.548698 35.610054 64.379036 34.945721C 64.209381 34.281391 64.415871 33.577427 64.917503 33.110001C 65.735001 32.2925 66.2425 30.940001 66.2425 29.435001C 66.2425 27.934999 65.735001 26.58 64.917496 25.76C 63.276871 24.095665 62.25753 21.918419 62.029999 19.592499C 61.827503 17.1625 62.659996 14.57 65.202499 12.877501C 66.064079 12.30319 67.228088 12.535993 67.802498 13.3975ZM 56.66 15.997499C 57.225536 15.629392 57.549652 14.985791 57.508694 14.31225C 57.467731 13.638711 57.068008 13.039129 56.462036 12.742266C 55.85606 12.445402 55.137306 12.497048 54.580002 12.877501C 52.040001 14.57 51.205002 17.1625 51.407501 19.592499C 51.634476 21.9193 52.653854 24.097515 54.295002 25.762499C 55.114998 26.58 55.619999 27.932499 55.619999 29.4375C 55.619999 30.9375 55.112499 32.2925 54.295002 33.112499C 53.793369 33.579926 53.58688 34.28389 53.756538 34.948223C 53.926197 35.612556 54.444946 36.131302 55.109283 36.300964C 55.773613 36.470623 56.477577 36.264133 56.945 35.762501C 58.627502 34.080002 59.369999 31.682501 59.369999 29.4375C 59.369999 27.1875 58.627502 24.7925 56.945 23.112499C 55.931324 22.073606 55.297222 20.723494 55.145 19.280001C 55.035 17.959999 55.452499 16.8025 56.66 15.997499ZM 42.182499 60.322498L 27.195 55.607498C 24.6975 54.775002 21.922501 56.162498 21.09 58.9375C 20.2575 61.434998 21.645 64.209999 24.42 65.042503L 39.407497 69.759995C 41.904999 70.592499 44.68 69.205002 45.512501 66.43C 46.067501 63.93 44.68 61.154999 42.182499 60.324997ZM 31.93 23.025C 31.93 18.881483 35.288986 15.5225 39.432499 15.5225C 43.576015 15.5225 46.935001 18.881483 46.935001 23.025C 46.935001 27.168516 43.576015 30.5275 39.432499 30.5275C 35.288986 30.5275 31.93 27.168516 31.93 23.025ZM 25.290001 46.7925C 25.290001 39.067501 31.707499 32.650002 39.432499 32.650002C 47.157501 32.650002 53.575001 39.067501 53.575001 46.7925L 53.575001 51.532501C 52.681461 51.511044 51.790916 51.643826 50.942497 51.924995L 46.677498 53.267498L 46.677498 49.747501C 46.677502 48.884556 45.977943 48.185001 45.115002 48.185001C 44.252056 48.185001 43.552502 48.884556 43.552502 49.747501L 43.552498 54.25L 38.419998 55.8675L 35.309998 54.887501L 35.309998 49.747501C 35.310001 48.884556 34.610447 48.185001 33.747501 48.185001C 32.884556 48.185001 32.185001 48.884556 32.185001 49.747501L 32.184998 53.902504L 28.155001 52.635002C 27.232328 52.32943 26.260517 52.199684 25.289999 52.252499L 25.290001 46.7925ZM 43.150002 57.654999C 46.852501 58.927498 48.849998 62.7425 48.415001 66.305L 54.677502 64.334999C 57.452503 63.502499 58.839996 60.727501 58.0075 58.23C 57.175003 55.454998 54.400002 54.064999 51.9025 54.897499L 43.150002 57.654999Z"></path></g></g></g><g id="g-root-ic_2_1unei301l7pfd5-fill" data-item-order="-1296" transform="translate(422, 38)"><g id="ic_2_1unei301l7pfd5-fill" stroke="none" fill="#4e88e7"><g><path d="M 23.247999 17.1775C 21.845602 17.481136 20.42454 16.749195 19.857426 15.431129C 19.290312 14.113062 19.73595 12.57795 20.920691 11.768441C 22.105431 10.958932 23.697529 11.1017 24.719345 12.109077C 25.741161 13.116455 25.90657 14.70636 25.114 15.9025L 27.4135 20.038L 29.609501 23.98C 29.80035 24.340134 30.171059 24.568878 30.578535 24.577938C 30.986012 24.586998 31.366524 24.37496 31.573191 24.023664C 31.77986 23.672371 31.780361 23.236771 31.574501 22.885L 29.4445 19.059999L 29.633499 19C 31.733501 18.4 33.983501 18.25 36.233501 18.85C 41.185001 20.028999 42.383499 23.872 42.383499 28.150002C 42.383499 28.150002 44.183498 31.450001 45.383499 34.300003C 45.683498 35.199997 45.0835 36.099998 44.183498 36.099998L 42.383499 36.099998L 42.383499 39.550003C 42.383499 40.449997 41.633499 41.199997 40.733501 41.199997L 37.433498 41.199997L 37.433498 46L 24.983501 46L 24.983501 38.199997C 24.383499 37.75 23.783501 37.150002 23.483501 36.400002C 21.9025 33.648998 21.327999 30.761499 21.668499 28.119999L 15.884501 26.317001C 14.989388 27.439754 13.424206 27.770813 12.151138 27.106657C 10.87807 26.442503 10.25412 24.969383 10.662856 23.592888C 11.071593 22.216393 12.398395 21.322533 13.827621 21.460796C 15.256847 21.599062 16.387701 22.73068 16.525 24.16L 24.713501 26.713001C 25.293316 26.860977 25.887505 26.529161 26.065674 25.957901C 26.243843 25.386641 25.943636 24.775873 25.3825 24.568001L 23.150501 23.870499C 23.77401 22.85601 24.563494 21.953453 25.486 21.2005L 23.247999 17.1775Z"></path></g></g></g><g id="g-root-ic_3d_3zdho1l7l9mv-fill" data-item-order="-1296" transform="translate(422, 145.99996948242188)"><g id="ic_3d_3zdho1l7l9mv-fill" stroke="none" fill="#3cc583"><g><path d="M 35.353001 10.069L 39.631001 10.069L 39.631001 18.105999L 35.353001 18.105999L 35.353001 10.069ZM 44.569 18.105999L 41.881001 18.105999L 41.881001 10.069L 44.569 10.069C 45.190323 10.069 45.694 10.57268 45.694 11.194L 45.694 16.980999C 45.694 17.602322 45.190323 18.106001 44.569 18.106001ZM 33.103001 10.069L 30.280001 10.069C 29.65868 10.069 29.155001 10.57268 29.155001 11.194L 29.155001 16.980999C 29.155001 17.601999 29.657499 18.105999 30.280001 18.105999L 33.103001 18.105999L 33.103001 10.069ZM 18.280001 20.737C 18.431499 20.661999 18.705999 20.542 19.032999 20.542C 19.3615 20.542 19.634501 20.661999 19.785999 20.737C 19.966 20.827 20.139999 20.939501 20.305 21.0595C 20.635 21.301001 21.008501 21.629499 21.3955 22.014999C 22.175499 22.790501 23.089001 23.866001 23.963501 25.119999C 25.684 27.586 27.393999 30.945999 27.393999 34.1665C 27.393999 36.2845 26.493999 38.296001 24.919001 39.767498C 23.344 41.237503 21.227501 42.050499 19.032999 42.050499C 16.84 42.050499 14.722 41.237503 13.1485 39.767498C 11.5735 38.297501 10.672 36.2845 10.672 34.167999C 10.672 30.945999 12.382 27.586 14.1025 25.119999C 14.867123 24.012703 15.726342 22.97381 16.6705 22.014999C 17.059 21.629499 17.431 21.301001 17.761 21.0595C 17.926001 20.939501 18.1015 20.8255 18.280001 20.737ZM 24.907 33.8335C 24.907001 33.212181 24.40332 32.7085 23.782001 32.7085C 23.160679 32.7085 22.657001 33.212181 22.657001 33.8335C 22.65358 34.66217 22.314213 35.454025 21.716499 36.028C 21.109001 36.6175 20.276501 36.954998 19.402 36.954998C 18.78068 36.955002 18.277 37.458679 18.277 38.080002C 18.277 38.701321 18.78068 39.205002 19.402 39.205002C 20.851 39.204998 22.247499 38.646999 23.282499 37.645C 24.318213 36.64719 24.904474 35.271664 24.907 33.8335ZM 43.612 22.1215C 43.612 21.293072 42.94043 20.6215 42.112 20.6215L 32.738503 20.6215C 31.910072 20.6215 31.238501 21.293072 31.238501 22.1215L 31.238501 39.809498C 31.238501 41.692001 32.078499 43.378002 33.404499 44.5135C 35.234417 46.078533 37.806065 46.439827 39.996376 45.43961C 42.186695 44.439388 43.597816 42.259335 43.613503 39.851501L 43.613503 33.866501L 43.613503 33.8545L 43.613503 22.1215ZM 40.612 32.181999L 40.612 23.6215L 34.238503 23.6215L 34.238503 30.256001C 35.881001 30.4645 37.216 30.979 38.366501 31.421501L 38.4175 31.442501C 39.227501 31.754501 39.925003 32.017002 40.613503 32.181999Z"></path></g></g></g><g id="g-root-ic_2_8wi0b01l7ju9t-fill" data-item-order="-1296" transform="translate(422, 253.99996948242188)"><g id="ic_2_8wi0b01l7ju9t-fill" stroke="none" fill="#de8431"><g><path d="M 28 10.075C 20.712868 10.075064 14.144721 14.468782 11.363114 21.204134C 8.581509 27.939486 10.135308 35.687454 15.298835 40.829464C 20.46236 45.971478 28.216751 47.492912 34.94043 44.683208C 41.664108 41.873505 46.030365 35.287067 46 28C 45.958702 18.088177 37.911911 10.074914 28 10.075ZM 13.075 28C 13.074065 24.492968 14.311869 21.098305 16.57 18.415001L 21.91 23.74C 22.495056 24.321587 23.439945 24.321587 24.025002 23.74C 24.606585 23.154943 24.606585 22.210056 24.025002 21.625L 18.73 16.33C 21.35763 14.218245 24.62896 13.069574 28 13.075C 33.730934 13.061484 38.961357 16.337145 41.451092 21.499023C 43.940826 26.660904 43.248253 32.793407 39.670002 37.27L 38.665001 36.264999C 38.069859 35.755333 37.182709 35.7896 36.628654 36.343655C 36.0746 36.897709 36.040337 37.784859 36.550003 38.380001L 37.584999 39.43C 33.145493 43.16584 26.941916 43.986912 21.683384 41.534645C 16.424852 39.082382 13.066529 33.802212 13.075 28ZM 34.735001 32.185001L 33.549999 32.185001C 33.389774 31.268707 33.031429 30.398445 32.5 29.635L 33.34 28.795C 33.64098 28.514545 33.764874 28.092167 33.663078 27.693567C 33.561283 27.294968 33.250034 26.983719 32.851433 26.881924C 32.452835 26.780127 32.030457 26.90402 31.75 27.205L 30.91 28.045C 30.146557 27.513571 29.276295 27.155226 28.360001 26.994999L 28.360001 25.809999C 28.360001 25.188681 27.856321 24.684999 27.235001 24.684999C 26.61368 24.684999 26.110001 25.188681 26.110001 25.809999L 26.110001 26.994999C 25.176462 27.133162 24.285114 27.476381 23.5 28L 22.674999 27.16C 22.235775 26.721321 21.524227 26.721321 21.085001 27.16C 20.870579 27.368933 20.749645 27.655621 20.749645 27.955C 20.749645 28.254383 20.870579 28.541069 21.085001 28.75L 21.91 29.59C 21.378571 30.353445 21.020226 31.223707 20.860001 32.139999L 19.735001 32.139999C 19.11368 32.139999 18.610001 32.643681 18.610001 33.264999C 18.610001 33.886322 19.11368 34.389999 19.735001 34.389999L 20.92 34.389999C 21.080799 35.329674 21.449814 36.221455 22 37L 21.174999 37.824997C 20.960579 38.033936 20.839645 38.320618 20.839645 38.619999C 20.839645 38.919384 20.960579 39.20607 21.175001 39.415001C 21.381762 39.631962 21.670372 39.751762 21.969999 39.744999C 22.2686 39.74641 22.555174 39.627457 22.764999 39.415001L 23.5 38.574997C 24.263443 39.10643 25.133707 39.464775 26.049999 39.625L 26.049999 40.810001C 26.050001 41.43132 26.55368 41.935001 27.175001 41.935001C 27.796322 41.935001 28.300001 41.43132 28.300001 40.810001L 28.299999 39.625C 29.216293 39.464775 30.086557 39.10643 30.85 38.575001L 31.690001 39.400002C 31.896763 39.616959 32.185371 39.736759 32.485001 39.73C 32.7836 39.731411 33.070175 39.612453 33.279999 39.400002C 33.718681 38.960773 33.718681 38.249229 33.279999 37.810001L 32.5 37C 33.031429 36.236557 33.389774 35.366295 33.550003 34.450001L 34.735001 34.449997C 35.356323 34.450001 35.860001 33.94632 35.860001 33.325001C 35.860001 32.703682 35.356323 32.200001 34.735001 32.200001ZM 29.844999 33.310001C 29.844999 34.751461 28.676464 35.920002 27.235001 35.920002C 25.793537 35.920002 24.625 34.751461 24.625 33.310001C 24.625 31.868536 25.793537 30.700001 27.235001 30.700001C 28.676464 30.700001 29.844999 31.868536 29.844999 33.310001ZM 38.349998 28.18C 39.335831 28.18 40.135002 27.380829 40.135002 26.395C 40.135002 25.409172 39.335831 24.610001 38.350002 24.610001C 37.364174 24.610001 36.565002 25.409172 36.565002 26.395C 36.565002 27.380829 37.364174 28.18 38.350002 28.18ZM 29.5 22.285C 31.272835 22.285 32.709999 20.847836 32.709999 19.075001C 32.709999 17.302166 31.272835 15.865 29.500002 15.865C 27.727167 15.865 26.290001 17.302166 26.290001 19.075001C 26.290001 20.847836 27.727167 22.285 29.500002 22.285Z"></path></g></g></g><g id="g-root-tx__13ym2301l7jthj-fill" data-item-order="0" transform="translate(470, 43.999969482421875)"><g id="tx__13ym2301l7jthj-fill" stroke="none" fill="#4e88e7"><g><text style="font: bold 20px Roboto, sans-serif; white-space: pre;" font-weight="bold" font-size="20px" font-family="Roboto, sans-serif"><tspan x="12" y="33.5" dominant-baseline="ideographic">神经调节</tspan></text></g></g></g><g id="g-root-tx__1hjfll81l84xl2-fill" data-item-order="0" transform="translate(470, 79.99996948242188)"><g id="tx__1hjfll81l84xl2-fill" stroke="none" fill="#3a4455"><g><text style="font: 20px Roboto, sans-serif; white-space: pre;" font-size="20px" font-family="Roboto, sans-serif"><tspan x="12" y="33.5" dominant-baseline="ideographic">利用神经系统快速响应环境变</tspan><tspan x="12" y="57.5" dominant-baseline="ideographic">化。</tspan></text></g></g></g><g id="g-root-tx__qn5jpo1l7jv2g-fill" data-item-order="0" transform="translate(14, 163.99996948242188)"><g id="tx__qn5jpo1l7jv2g-fill" stroke="none" fill="#484848"><g><text style="font: bold 20px Roboto, sans-serif; white-space: pre;" font-weight="bold" font-size="20px" font-family="Roboto, sans-serif"><tspan x="12" y="33.5" dominant-baseline="ideographic">如何调节生理功能以维</tspan><tspan x="42" y="57.5" dominant-baseline="ideographic">持内环境稳定？</tspan></text></g></g></g><g id="g-root-tx__1uuw3yk1l84w05-fill" data-item-order="0" transform="translate(470, 151.99996948242188)"><g id="tx__1uuw3yk1l84w05-fill" stroke="none" fill="#3cc583"><g><text style="font: bold 20px Roboto, sans-serif; white-space: pre;" font-weight="bold" font-size="20px" font-family="Roboto, sans-serif"><tspan x="12" y="33.5" dominant-baseline="ideographic">体液调节</tspan></text></g></g></g><g id="g-root-tx__958kcs1l84umc-fill" data-item-order="0" transform="translate(470, 187.99996948242188)"><g id="tx__958kcs1l84umc-fill" stroke="none" fill="#374840"><g><text style="font: 20px Roboto, sans-serif; white-space: pre;" font-size="20px" font-family="Roboto, sans-serif"><tspan x="12" y="33.5" dominant-baseline="ideographic">使用激素和其他体液信号进行更</tspan><tspan x="12" y="57.5" dominant-baseline="ideographic">持久的调节。</tspan></text></g></g></g><g id="g-root-tx__mg2ln01l84w77-fill" data-item-order="0" transform="translate(470, 259.9999694824219)"><g id="tx__mg2ln01l84w77-fill" stroke="none" fill="#de8431"><g><text style="font: bold 20px Roboto, sans-serif; white-space: pre;" font-weight="bold" font-size="20px" font-family="Roboto, sans-serif"><tspan x="12" y="33.5" dominant-baseline="ideographic">自身调节</tspan></text></g></g></g><g id="g-root-tx__146q51o1l84wzu-fill" data-item-order="0" transform="translate(470, 295.9999694824219)"><g id="tx__146q51o1l84wzu-fill" stroke="none" fill="#4c4034"><g><text style="font: 20px Roboto, sans-serif; white-space: pre;" font-size="20px" font-family="Roboto, sans-serif"><tspan x="12" y="33.5" dominant-baseline="ideographic">依赖于细胞和器官的内在机制。</tspan></text></g></g></g><g id="g-root-sy_3_line_1ly05jg1l84umm-stroke" data-item-order="-38843" transform="translate(302, 163.99996948242188)"><g id="sy_3_line_1ly05jg1l84umm-stroke" fill="none" stroke-linecap="round" stroke-linejoin="round" stroke-miterlimit="4" stroke="#de8431" stroke-width="2"><g><path d="M 116 118L 57.95 118C 44.7 118 33.95 107.25 33.95 94L 33.95 33.95C 33.95 20.72 23.23 10 10 10"></path><path d="M 110 124.5L 116.5 118L 110 111.5" stroke-dasharray="none"></path></g></g></g><g id="g-root-sy_1_line_1hi6nf01l84vev-stroke" data-item-order="-38837" transform="translate(301.9999084472656, 55.999969482421875)"><g id="sy_1_line_1hi6nf01l84vev-stroke" fill="none" stroke-linecap="round" stroke-linejoin="round" stroke-miterlimit="4" stroke="#4e88e7" stroke-width="2"><g><path d="M 116.000092 10L 58.950092 10C 45.700092 10 34.950092 20.75 34.950092 34L 34.950092 94.05C 34.950092 107.28 24.230092 118 11.000092 118L 10.000092 118"></path><path d="M 110.000092 16.5L 116.500092 10L 110.000092 3.5" stroke-dasharray="none"></path></g></g></g><g id="g-root-sy_2_line_1d2d5ak1l84w74-stroke" data-item-order="-38831" transform="translate(301.9997863769531, 163.99996948242188)"><g id="sy_2_line_1d2d5ak1l84w74-stroke" fill="none" stroke-linecap="round" stroke-linejoin="round" stroke-miterlimit="4" stroke="#3cc583" stroke-width="2"><g><path d="M 116.000214 10L 10.000214 10"></path><path d="M 110.000214 16.5L 116.500214 10L 110.000214 3.5" stroke-dasharray="none"></path></g></g></g><g id="g-root-sy_0_line_146q51o1l84wzt-stroke" data-item-order="-38827" transform="translate(230, 163.99996948242188)"><g id="sy_0_line_146q51o1l84wzt-stroke" fill="none" stroke-linecap="round" stroke-linejoin="round" stroke-miterlimit="4" stroke="#484848" stroke-width="2"><g><path d="M 82 10L 10 10"></path></g></g></g><g id="g-root-ic_1_1463r4c1l7mo08-stroke" data-item-order="-3600" transform="translate(86, 91.99996948242188)"></g><g id="g-root-ic_2_1unei301l7pfd5-stroke" data-item-order="-1296" transform="translate(422, 38)"></g><g id="g-root-ic_3d_3zdho1l7l9mv-stroke" data-item-order="-1296" transform="translate(422, 145.99996948242188)"></g><g id="g-root-ic_2_8wi0b01l7ju9t-stroke" data-item-order="-1296" transform="translate(422, 253.99996948242188)"></g><g id="g-root-tx__13ym2301l7jthj-stroke" data-item-order="0" transform="translate(470, 43.999969482421875)"></g><g id="g-root-tx__1hjfll81l84xl2-stroke" data-item-order="0" transform="translate(470, 79.99996948242188)"></g><g id="g-root-tx__qn5jpo1l7jv2g-stroke" data-item-order="0" transform="translate(14, 163.99996948242188)"></g><g id="g-root-tx__1uuw3yk1l84w05-stroke" data-item-order="0" transform="translate(470, 151.99996948242188)"></g><g id="g-root-tx__958kcs1l84umc-stroke" data-item-order="0" transform="translate(470, 187.99996948242188)"></g><g id="g-root-tx__mg2ln01l84w77-stroke" data-item-order="0" transform="translate(470, 259.9999694824219)"></g><g id="g-root-tx__146q51o1l84wzu-stroke" data-item-order="0" transform="translate(470, 295.9999694824219)"></g></g></g><path id="wdbpkbg1hw9rlz" d="M65.283 12.757a.35.35 0 0 0 .584.157l5.203-5.141-6.183 3.523.396 1.461zm-2.216-11.7a.35.35 0 0 0-.522.305v3.111l3.276-1.868-2.754-1.548zm3.728 2.105l-4.25 2.421v2.445l6.391-3.644-2.141-1.222zm4.708 3.303a.35.35 0 0 0 0-.609l-1.592-.9-7.365 4.199v1.782a.35.35 0 0 0 .523.305l8.435-4.777z M44.542 2.513c0-.433.355-.783.792-.783s.792.35.792.783-.355.783-.792.783-.792-.35-.792-.783zm59.171 0c0-.433.355-.783.792-.783s.792.35.792.783-.355.783-.792.783-.792-.35-.792-.783zm-85.951 7.636h-1.27v-.487c-.276.201-.864.609-1.881.609-1.202 0-2.274-.794-2.137-2.078.118-1.106 1.153-1.584 1.848-1.727l2.17-.345c0-.539-.29-.956-1.064-1.006s-1.21.305-1.571 1.017l-1.124-.605c1.218-2.631 5.029-1.764 5.029.414v4.207zm-1.27-2.86c.006.396-.062 1.112-.819 1.59-.587.37-1.841.299-1.903-.395-.049-.555.461-.791.906-.898l1.816-.297zm72.662 2.86h-1.27v-.487c-.276.201-.864.609-1.881.609-1.202 0-2.274-.794-2.137-2.078.118-1.106 1.153-1.584 1.848-1.727l2.17-.345c0-.539-.29-.956-1.064-1.006s-1.21.305-1.571 1.017l-1.124-.605c1.218-2.631 5.029-1.764 5.029.414v4.207zm-1.27-2.86c.006.396-.062 1.112-.82 1.59-.587.37-1.841.299-1.903-.395-.049-.555.461-.791.906-.898l1.816-.297zM99.096 10.149H97.85v-8.45h1.246v4.895l2.68-2.559h1.738l-2.633 2.535 2.715 3.578h-1.556l-2.077-2.707-.867.844v1.863zm6.053-6.114h-1.255v6.113h1.255V4.035zm-59.2 0h-1.255v6.113h1.255V4.035zm5.584 6.113V1.697h1.255v2.695c.361-.346 1-.485 1.47-.485 1.452 0 2.477 1.082 2.457 2.448v3.792h-1.27v-3.68c0-.408-.214-1.339-1.315-1.339-.968 0-1.342.756-1.342 1.339v3.681h-1.255zm-4.76-4.894V4.039h.621a.45.45 0 0 0 .45-.45v-.855h1.251v1.305h1.309v1.215h-1.309v3.109c0 .293.105.664.648.664.365 0 .531-.035.736-.07v1.137s-.361.113-.857.113c-1.398 0-1.777-1.051-1.777-1.788V5.254h-1.071zM36.528 4.039h-1.394l2.191 6.106h1.125l1.234-3.918 1.238 3.918h1.129l2.188-6.106h-1.383l-1.359 3.93-1.256-3.93h-1.124l-1.242 3.957-1.348-3.957zM26.212 7.141c-.02 1.566 1.187 3.129 3.223 3.129 1.566 0 2.383-.918 2.734-1.719L31.172 8c-.315.399-.801 1.094-1.738 1.094-1.145 0-1.825-.781-1.891-1.52h4.625c.074-.284.148-.995-.03-1.559-.336-1.064-1.221-2.102-2.839-2.102s-3.088 1.152-3.088 3.227zm1.363-.75h3.348c-.055-.43-.566-1.301-1.623-1.301a1.79 1.79 0 0 0-1.725 1.301zm-8.758.75c.038 1.758 1.277 3.133 3.145 3.133 1.074 0 1.723-.477 1.961-.672v.547h1.242V1.703h-1.258v2.888c-.414-.36-1.062-.68-1.93-.68-1.91 0-3.198 1.473-3.16 3.23zm1.309-.08c0 1.119.723 1.978 1.836 1.978a1.88 1.88 0 0 0 1.94-1.904c0-1.371-1.011-1.99-1.972-1.99s-1.805.798-1.805 1.916zm76.683-.028C96.771 5.275 95.532 3.9 93.664 3.9c-1.074 0-1.723.477-1.961.672v-.547h-1.242v8.22h1.258V9.583c.414.36 1.063.68 1.93.68 1.91 0 3.198-1.473 3.16-3.23zm-1.309.08c0-1.119-.723-1.978-1.836-1.978a1.88 1.88 0 0 0-1.94 1.904c0 1.371 1.011 1.99 1.972 1.99S95.5 8.231 95.5 7.113zM106.441 10.173V4.036h1.254v.382c.361-.346 1-.485 1.47-.485 1.452 0 2.477 1.082 2.457 2.448v3.792h-1.27V6.492c0-.408-.214-1.339-1.315-1.339-.969 0-1.342.756-1.342 1.339v3.681h-1.254zm-30.383-.021V1.824h1.084l4.215 5.777V1.824h1.32v8.328h-1.094l-4.207-5.796v5.796h-1.319zM5.24 10.149H4V2.377h1.014l2.664 3.597 2.654-3.592h1.03v7.766h-1.256V4.762L7.678 8.068 5.24 4.742v5.407z" transform="translate(20, 353.9999694824219)" fill="#80808088" stroke="none"></path></svg>